{
	"asset":{
		"generator":"Khronos glTF Blender I/O v4.5.47",
		"version":"2.0"
	},
	"scene":0,
	"scenes":[
		{
			"name":"Scene",
			"nodes":[
				4,
				5,
				6,
				7,
				9,
				37
			]
		}
	],
	"nodes":[
		{
			"mesh":0,
			"name":"Gasket_1",
			"rotation":[
				0,
				0,
				0.7071068286895752,
				0.7071068286895752
			],
			"scale":[
				0.9842050671577454,
				0.9842050671577454,
				0.9842050671577454
			],
			"translation":[
				0.1892603635787964,
				1.0734893083572388,
				0.517401933670044
			]
		},
		{
			"mesh":1,
			"name":"STARTER_AIR_DUCT1",
			"rotation":[
				0,
				0,
				0.7071068286895752,
				0.7071068286895752
			],
			"translation":[
				0.3500363826751709,
				0.2658219039440155,
				-6.7862935066223145
			]
		},
		{
			"mesh":2,
			"name":"STARTER_AIR_VALVE",
			"rotation":[
				0,
				0,
				0.7071068286895752,
				0.7071068286895752
			],
			"translation":[
				-0.4321547746658325,
				-0.7959652543067932,
				-3.1114354133605957
			]
		},
		{
			"mesh":3,
			"name":"V_BAND_CLAMP_1",
			"rotation":[
				0,
				0,
				0.7071068286895752,
				0.7071068286895752
			],
			"scale":[
				0.9842050671577454,
				0.9842050671577454,
				0.9842050671577454
			],
			"translation":[
				0.1892603635787964,
				1.0734893083572388,
				0.517401933670044
			]
		},
		{
			"children":[
				0,
				1,
				2,
				3
			],
			"mesh":4,
			"name":"STARTER_AIR_DUCT",
			"rotation":[
				0.7071068286895752,
				0,
				0,
				0.7071068286895752
			],
			"scale":[
				0.1534404456615448,
				0.1534404456615448,
				0.1534404456615448
			],
			"translation":[
				-0.29889732599258423,
				1.297183632850647,
				-0.6182254552841187
			]
		},
		{
			"mesh":5,
			"name":"V_BAND_CLAMP_2",
			"rotation":[
				0.5,
				-0.4999999701976776,
				0.5,
				0.5000000596046448
			],
			"scale":[
				0.17665383219718933,
				0.17665383219718933,
				0.17665383219718933
			],
			"translation":[
				-0.26985710859298706,
				1.2177929878234863,
				-0.041612524539232254
			]
		},
		{
			"mesh":6,
			"name":"Gasket_2",
			"rotation":[
				0.5,
				-0.4999999701976776,
				0.5,
				0.5000000596046448
			],
			"scale":[
				0.17665383219718933,
				0.17665383219718933,
				0.17665383219718933
			],
			"translation":[
				-0.26985710859298706,
				1.2177929878234863,
				-0.041612524539232254
			]
		},
		{
			"mesh":7,
			"name":"Cylinder.006",
			"rotation":[
				0.509340226650238,
				-0.4904818832874298,
				-0.4904819130897522,
				0.5093402862548828
			],
			"scale":[
				0.3230379819869995,
				0.3230379819869995,
				0.3230379819869995
			],
			"translation":[
				-0.40986594557762146,
				1.1523562669754028,
				-0.1963767260313034
			]
		},
		{
			"mesh":8,
			"name":"QAD_RING",
			"rotation":[
				-0.005291234701871872,
				7.926425314508379e-05,
				-0.014978410676121712,
				0.9998738169670105
			],
			"scale":[
				1.1187418699264526,
				1.1187419891357422,
				1.1187419891357422
			],
			"translation":[
				-6.52457857131958,
				-17.973222732543945,
				19.197486877441406
			]
		},
		{
			"children":[
				8
			],
			"mesh":9,
			"name":"MAIN_GEARBOX",
			"rotation":[
				0.7107590436935425,
				-0.010647379793226719,
				0.010535285808146,
				0.7032761573791504
			],
			"scale":[
				0.00893861148506403,
				0.008938612416386604,
				0.008938610553741455
			],
			"translation":[
				-0.20503047108650208,
				1.4092851877212524,
				0.15703026950359344
			]
		},
		{
			"mesh":10,
			"name":"Air_Inlet_Housing",
			"rotation":[
				0,
				0,
				-0.7070980072021484,
				0.7071155309677124
			],
			"scale":[
				0.0874970555305481,
				0.0874970555305481,
				0.0874970555305481
			],
			"translation":[
				-0.7986221313476562,
				-0.9210586547851562,
				14.486391067504883
			]
		},
		{
			"mesh":11,
			"name":"Air_Turbine_Starter",
			"rotation":[
				0,
				0,
				-0.8696735501289368,
				0.4936273694038391
			],
			"scale":[
				0.0874970555305481,
				0.0874970555305481,
				0.0874970555305481
			],
			"translation":[
				0.2859210968017578,
				-0.7394943237304688,
				23.196805953979492
			]
		},
		{
			"mesh":12,
			"name":"Air_Turbine_Starter.001",
			"rotation":[
				0,
				0,
				-0.8696735501289368,
				0.4936273694038391
			],
			"scale":[
				0.0874970555305481,
				0.0874970555305481,
				0.0874970555305481
			],
			"translation":[
				-10.077516555786133,
				-6.186347961425781,
				21.45736312866211
			]
		},
		{
			"mesh":13,
			"name":"Air_Turbine_Starter.002",
			"rotation":[
				0,
				0,
				-0.8696735501289368,
				0.4936273694038391
			],
			"scale":[
				0.0874970555305481,
				0.0874970555305481,
				0.0874970555305481
			],
			"translation":[
				-11.42971420288086,
				-0.72698974609375,
				20.638978958129883
			]
		},
		{
			"mesh":14,
			"name":"Cube.002",
			"rotation":[
				0,
				0,
				0.17915843427181244,
				0.9838203191757202
			],
			"scale":[
				1.6692568063735962,
				1.6692568063735962,
				0.1291206181049347
			],
			"translation":[
				-1.299600601196289,
				3.8405990600585938,
				32.79914855957031
			]
		},
		{
			"mesh":15,
			"name":"Cube.003",
			"rotation":[
				0,
				0,
				-0.17966461181640625,
				0.9837279319763184
			],
			"scale":[
				1.6692571640014648,
				1.6692571640014648,
				0.1291206181049347
			],
			"translation":[
				-1.3043460845947266,
				-5.3821563720703125,
				32.79914855957031
			]
		},
		{
			"mesh":16,
			"name":"Cylinder",
			"rotation":[
				0.70710688829422,
				0,
				0,
				0.7071066498756409
			],
			"scale":[
				3.0015881061553955,
				3.0015881061553955,
				3.0015881061553955
			],
			"translation":[
				0.28858184814453125,
				-0.7548828125,
				33.31688690185547
			]
		},
		{
			"mesh":17,
			"name":"Cylinder.001",
			"rotation":[
				0,
				0,
				-0.8696735501289368,
				0.4936273694038391
			],
			"scale":[
				0.0874970555305481,
				0.0874970555305481,
				0.0874970555305481
			],
			"translation":[
				0.288238525390625,
				-0.7464447021484375,
				32.89223861694336
			]
		},
		{
			"mesh":18,
			"name":"Cylinder.002",
			"rotation":[
				0,
				0,
				-0.8696735501289368,
				0.4936273694038391
			],
			"scale":[
				0.0874970555305481,
				0.0874970555305481,
				0.0874970555305481
			],
			"translation":[
				0.2929668426513672,
				0.30669403076171875,
				20.384614944458008
			]
		},
		{
			"mesh":19,
			"name":"Cylinder.004",
			"rotation":[
				0.6762261390686035,
				-0.20668399333953857,
				-0.206683948636055,
				0.6762260794639587
			],
			"scale":[
				0.6969192028045654,
				0.6969192624092102,
				0.6969192028045654
			],
			"translation":[
				5.4418230056762695,
				0.8349227905273438,
				33.53199768066406
			]
		},
		{
			"mesh":20,
			"name":"Cylinder.005",
			"rotation":[
				0.70710688829422,
				0,
				0,
				0.7071066498756409
			],
			"scale":[
				0.6969192624092102,
				0.6969192624092102,
				0.6969192624092102
			],
			"translation":[
				1.2951068878173828,
				-0.1251678466796875,
				34.07437515258789
			]
		},
		{
			"mesh":21,
			"name":"Gauge_Holder",
			"rotation":[
				-0.8998393416404724,
				0.4362214505672455,
				0,
				5.071817668067524e-07
			],
			"scale":[
				0.9165495038032532,
				0.9165495038032532,
				0.9165496230125427
			],
			"translation":[
				-8.281705856323242,
				-6.463615417480469,
				26.81201171875
			]
		},
		{
			"mesh":22,
			"name":"Magnetic_Plug_Assembly",
			"rotation":[
				0.500080406665802,
				0.49129149317741394,
				0.5144302845001221,
				0.49387621879577637
			],
			"scale":[
				0.3810211718082428,
				0.3805171549320221,
				0.39842644333839417
			],
			"translation":[
				0.3533611297607422,
				-12.719963073730469,
				26.187898635864258
			]
		},
		{
			"mesh":23,
			"name":"Object",
			"rotation":[
				0,
				0,
				-0.7070980072021484,
				0.7071155309677124
			],
			"scale":[
				0.0874970555305481,
				0.0874970555305481,
				0.0874970555305481
			],
			"translation":[
				-0.7868824005126953,
				-0.942352294921875,
				13.76418685913086
			]
		},
		{
			"mesh":24,
			"name":"Object.001",
			"rotation":[
				0,
				0,
				-0.7070980072021484,
				0.7071155309677124
			],
			"scale":[
				0.0874970555305481,
				0.0874970555305481,
				0.0874970555305481
			],
			"translation":[
				-0.03196144104003906,
				-1.0367660522460938,
				7.454442977905273
			]
		},
		{
			"mesh":25,
			"name":"Oil_Fill_Plug",
			"rotation":[
				-0.08117583394050598,
				0.1898382306098938,
				0.31635236740112305,
				0.9259012341499329
			],
			"scale":[
				1.3384767770767212,
				1.3483843803405762,
				1.2983667850494385
			],
			"translation":[
				-6.307892799377441,
				3.8345584869384766,
				-0.08829498291015625
			]
		},
		{
			"mesh":26,
			"name":"Plug_Bolt",
			"translation":[
				-1.981532096862793,
				8.611993789672852,
				0.5468254089355469
			]
		},
		{
			"mesh":27,
			"name":"Plug_Packing",
			"rotation":[
				-0.08117583394050598,
				0.1898382306098938,
				0.31635236740112305,
				0.9259012341499329
			],
			"scale":[
				1.3384767770767212,
				1.3483843803405762,
				1.2983667850494385
			],
			"translation":[
				-6.116415977478027,
				3.5909957885742188,
				-0.12473297119140625
			]
		},
		{
			"children":[
				25,
				26,
				27
			],
			"mesh":28,
			"name":"Oil_Fill",
			"rotation":[
				0.12006178498268127,
				-0.16785851120948792,
				-0.09597593545913696,
				0.9737542271614075
			],
			"scale":[
				0.22674411535263062,
				0.2264440953731537,
				0.25153282284736633
			],
			"translation":[
				-7.865959167480469,
				2.1943817138671875,
				29.764324188232422
			]
		},
		{
			"mesh":29,
			"name":"Oil_Sight_Glass",
			"rotation":[
				-0.8998393416404724,
				0.4362214505672455,
				0,
				5.071817668067524e-07
			],
			"scale":[
				0.9165495038032532,
				0.9165495038032532,
				0.9165496230125427
			],
			"translation":[
				-8.281705856323242,
				-6.463615417480469,
				26.81201171875
			]
		},
		{
			"mesh":30,
			"name":"Output_Shaft",
			"rotation":[
				0.70710688829422,
				0,
				0,
				0.7071066498756409
			],
			"scale":[
				3.0015881061553955,
				3.0015881061553955,
				3.0015881061553955
			],
			"translation":[
				0.3125,
				-0.7675247192382812,
				35.802974700927734
			]
		},
		{
			"mesh":31,
			"name":"Plane",
			"scale":[
				7.480881690979004,
				7.480881690979004,
				7.480881690979004
			],
			"translation":[
				0.34699058532714844,
				9.270980834960938,
				25.55332374572754
			]
		},
		{
			"mesh":32,
			"name":"Plane.003",
			"rotation":[
				-0.2550008296966553,
				0.962495744228363,
				0.09099801629781723,
				0.017202671617269516
			],
			"scale":[
				0.916549563407898,
				0.916549563407898,
				0.9165496826171875
			],
			"translation":[
				0.2568492889404297,
				9.322349548339844,
				25.543659210205078
			]
		},
		{
			"mesh":33,
			"name":"Plane.008",
			"rotation":[
				0.6951330304145813,
				-0.12957768142223358,
				0.639559268951416,
				0.3016018569469452
			],
			"scale":[
				0.8678951263427734,
				0.8678951859474182,
				0.8678950071334839
			],
			"translation":[
				-4.277109146118164,
				-8.644424438476562,
				29.35612678527832
			]
		},
		{
			"mesh":34,
			"name":"Starter_Speed_Sensor",
			"rotation":[
				0.44404324889183044,
				-0.5473143458366394,
				0.43173277378082275,
				0.5629204511642456
			],
			"scale":[
				1.2211025953292847,
				1.2211027145385742,
				1.2211027145385742
			],
			"translation":[
				-11.003213882446289,
				1.0707473754882812,
				24.20000457763672
			]
		},
		{
			"mesh":35,
			"name":"Text",
			"rotation":[
				0,
				0,
				0.4920257031917572,
				0.8705806732177734
			],
			"scale":[
				2.4393391609191895,
				2.4393391609191895,
				2.4393391609191895
			],
			"translation":[
				-8.314676284790039,
				4.5295562744140625,
				26.168365478515625
			]
		},
		{
			"mesh":36,
			"name":"Text.001",
			"rotation":[
				0.6306304335594177,
				-0.34802159667015076,
				0.3962329626083374,
				0.5693731307983398
			],
			"scale":[
				1.060158371925354,
				1.0601582527160645,
				1.0601580142974854
			],
			"translation":[
				-7.960988998413086,
				-2.3956451416015625,
				30.153959274291992
			]
		},
		{
			"children":[
				10,
				11,
				12,
				13,
				14,
				15,
				16,
				17,
				18,
				19,
				20,
				21,
				22,
				23,
				24,
				28,
				29,
				30,
				31,
				32,
				33,
				34,
				35,
				36
			],
			"mesh":37,
			"name":"STARTER_ctrl_1",
			"scale":[
				0.014825260266661644,
				0.014825260266661644,
				0.014825260266661644
			],
			"translation":[
				-0.2731826603412628,
				1.2469323873519897,
				-0.551735520362854
			]
		}
	],
	"materials":[
		{
			"doubleSided":true,
			"name":"New Texture",
			"pbrMetallicRoughness":{
				"baseColorTexture":{
					"index":0
				},
				"metallicFactor":0.5,
				"roughnessFactor":0.3799999952316284
			}
		},
		{
			"alphaMode":"BLEND",
			"doubleSided":true,
			"name":"Glass",
			"pbrMetallicRoughness":{
				"baseColorFactor":[
					0.05475790053606033,
					0.05475790053606033,
					0.05475790053606033,
					0.25
				],
				"metallicFactor":0,
				"roughnessFactor":0.5
			}
		},
		{
			"doubleSided":true,
			"name":"Liquid",
			"pbrMetallicRoughness":{
				"baseColorFactor":[
					0.7083717584609985,
					0.35640057921409607,
					0.0006071467651054263,
					1
				],
				"metallicFactor":0,
				"roughnessFactor":0.25
			}
		}
	],
	"meshes":[
		{
			"name":"Mesh.036",
			"primitives":[
				{
					"attributes":{
						"POSITION":0,
						"NORMAL":1,
						"TEXCOORD_0":2
					},
					"indices":3,
					"material":0
				}
			]
		},
		{
			"name":"Mesh.024",
			"primitives":[
				{
					"attributes":{
						"POSITION":4,
						"NORMAL":5,
						"TEXCOORD_0":6
					},
					"indices":7,
					"material":0
				}
			]
		},
		{
			"name":"Mesh.025",
			"primitives":[
				{
					"attributes":{
						"POSITION":8,
						"NORMAL":9,
						"TEXCOORD_0":10
					},
					"indices":11,
					"material":0
				}
			]
		},
		{
			"name":"Mesh.026",
			"primitives":[
				{
					"attributes":{
						"POSITION":12,
						"NORMAL":13,
						"TEXCOORD_0":14
					},
					"indices":15,
					"material":0
				}
			]
		},
		{
			"name":"Mesh.023",
			"primitives":[
				{
					"attributes":{
						"POSITION":16,
						"NORMAL":17,
						"TEXCOORD_0":18
					},
					"indices":19,
					"material":0
				}
			]
		},
		{
			"name":"Mesh.032",
			"primitives":[
				{
					"attributes":{
						"POSITION":20,
						"NORMAL":21,
						"TEXCOORD_0":22
					},
					"indices":23,
					"material":0
				}
			]
		},
		{
			"name":"Mesh.037",
			"primitives":[
				{
					"attributes":{
						"POSITION":24,
						"NORMAL":25,
						"TEXCOORD_0":26
					},
					"indices":3,
					"material":0
				}
			]
		},
		{
			"name":"Cylinder.003",
			"primitives":[
				{
					"attributes":{
						"POSITION":27,
						"NORMAL":28,
						"TEXCOORD_0":29
					},
					"indices":30,
					"material":0
				}
			]
		},
		{
			"name":"Mesh.001",
			"primitives":[
				{
					"attributes":{
						"POSITION":31,
						"NORMAL":32,
						"TEXCOORD_0":33
					},
					"indices":34,
					"material":0
				}
			]
		},
		{
			"name":"Mesh",
			"primitives":[
				{
					"attributes":{
						"POSITION":35,
						"NORMAL":36,
						"TEXCOORD_0":37,
						"COLOR_0":38,
						"COLOR_1":39,
						"COLOR_2":40
					},
					"indices":41,
					"material":0
				}
			]
		},
		{
			"name":"Mesh.028",
			"primitives":[
				{
					"attributes":{
						"POSITION":42,
						"NORMAL":43,
						"TEXCOORD_0":44
					},
					"indices":45,
					"material":0
				}
			]
		},
		{
			"name":"Mesh.004",
			"primitives":[
				{
					"attributes":{
						"POSITION":46,
						"NORMAL":47,
						"TEXCOORD_0":48
					},
					"indices":49,
					"material":0
				}
			]
		},
		{
			"name":"Mesh.033",
			"primitives":[
				{
					"attributes":{
						"POSITION":50,
						"NORMAL":51,
						"TEXCOORD_0":52
					},
					"indices":53,
					"material":0
				}
			]
		},
		{
			"name":"Mesh.005",
			"primitives":[
				{
					"attributes":{
						"POSITION":54,
						"NORMAL":55,
						"TEXCOORD_0":56
					},
					"indices":57,
					"material":0
				}
			]
		},
		{
			"name":"Mesh.006",
			"primitives":[
				{
					"attributes":{
						"POSITION":58,
						"NORMAL":59,
						"TEXCOORD_0":60
					},
					"indices":61,
					"material":0
				}
			]
		},
		{
			"name":"Mesh.007",
			"primitives":[
				{
					"attributes":{
						"POSITION":62,
						"NORMAL":63,
						"TEXCOORD_0":64
					},
					"indices":65,
					"material":0
				}
			]
		},
		{
			"name":"Mesh.008",
			"primitives":[
				{
					"attributes":{
						"POSITION":66,
						"NORMAL":67,
						"TEXCOORD_0":68
					},
					"indices":69,
					"material":0
				}
			]
		},
		{
			"name":"Mesh.009",
			"primitives":[
				{
					"attributes":{
						"POSITION":70,
						"NORMAL":71,
						"TEXCOORD_0":72
					},
					"indices":73,
					"material":0
				}
			]
		},
		{
			"name":"Mesh.010",
			"primitives":[
				{
					"attributes":{
						"POSITION":74,
						"NORMAL":75,
						"TEXCOORD_0":76
					},
					"indices":77,
					"material":0
				}
			]
		},
		{
			"name":"Mesh.011",
			"primitives":[
				{
					"attributes":{
						"POSITION":78,
						"NORMAL":79,
						"TEXCOORD_0":80
					},
					"indices":81,
					"material":0
				}
			]
		},
		{
			"name":"Mesh.012",
			"primitives":[
				{
					"attributes":{
						"POSITION":82,
						"NORMAL":83,
						"TEXCOORD_0":84
					},
					"indices":85,
					"material":0
				}
			]
		},
		{
			"name":"Mesh.018",
			"primitives":[
				{
					"attributes":{
						"POSITION":86,
						"NORMAL":87,
						"TEXCOORD_0":88
					},
					"indices":89,
					"material":0
				}
			]
		},
		{
			"name":"Mesh.014",
			"primitives":[
				{
					"attributes":{
						"POSITION":90,
						"NORMAL":91,
						"TEXCOORD_0":92
					},
					"indices":93,
					"material":0
				}
			]
		},
		{
			"name":"Mesh.003",
			"primitives":[
				{
					"attributes":{
						"POSITION":94,
						"NORMAL":95,
						"TEXCOORD_0":96
					},
					"indices":97,
					"material":0
				}
			]
		},
		{
			"name":"Mesh.031",
			"primitives":[
				{
					"attributes":{
						"POSITION":98,
						"NORMAL":99,
						"TEXCOORD_0":100
					},
					"indices":101,
					"material":0
				}
			]
		},
		{
			"name":"Cylinder.001",
			"primitives":[
				{
					"attributes":{
						"POSITION":102,
						"NORMAL":103,
						"TEXCOORD_0":104
					},
					"indices":105,
					"material":0
				}
			]
		},
		{
			"name":"Mesh.013",
			"primitives":[
				{
					"attributes":{
						"POSITION":106,
						"NORMAL":107,
						"TEXCOORD_0":108
					},
					"indices":109,
					"material":0
				}
			]
		},
		{
			"name":"Cylinder",
			"primitives":[
				{
					"attributes":{
						"POSITION":110,
						"NORMAL":111,
						"TEXCOORD_0":112
					},
					"indices":113,
					"material":0
				}
			]
		},
		{
			"name":"Mesh.029",
			"primitives":[
				{
					"attributes":{
						"POSITION":114,
						"NORMAL":115,
						"TEXCOORD_0":116
					},
					"indices":117,
					"material":0
				}
			]
		},
		{
			"name":"Mesh.027",
			"primitives":[
				{
					"attributes":{
						"POSITION":118,
						"NORMAL":119,
						"TEXCOORD_0":120
					},
					"indices":121,
					"material":1
				},
				{
					"attributes":{
						"POSITION":122,
						"NORMAL":123,
						"TEXCOORD_0":124
					},
					"indices":125,
					"material":2
				}
			]
		},
		{
			"name":"Mesh.015",
			"primitives":[
				{
					"attributes":{
						"POSITION":126,
						"NORMAL":127,
						"TEXCOORD_0":128
					},
					"indices":129,
					"material":0
				}
			]
		},
		{
			"name":"Mesh.016",
			"primitives":[
				{
					"attributes":{
						"POSITION":130,
						"NORMAL":131,
						"TEXCOORD_0":132
					},
					"indices":133,
					"material":0
				}
			]
		},
		{
			"name":"Mesh.017",
			"primitives":[
				{
					"attributes":{
						"POSITION":134,
						"NORMAL":135,
						"TEXCOORD_0":136
					},
					"indices":137,
					"material":0
				}
			]
		},
		{
			"name":"Mesh.019",
			"primitives":[
				{
					"attributes":{
						"POSITION":138,
						"NORMAL":139,
						"TEXCOORD_0":140
					},
					"indices":141,
					"material":0
				}
			]
		},
		{
			"name":"Mesh.020",
			"primitives":[
				{
					"attributes":{
						"POSITION":142,
						"NORMAL":143,
						"TEXCOORD_0":144
					},
					"indices":145,
					"material":0
				}
			]
		},
		{
			"name":"Mesh.021",
			"primitives":[
				{
					"attributes":{
						"POSITION":146,
						"NORMAL":147,
						"TEXCOORD_0":148
					},
					"indices":149,
					"material":0
				}
			]
		},
		{
			"name":"Mesh.022",
			"primitives":[
				{
					"attributes":{
						"POSITION":150,
						"NORMAL":151,
						"TEXCOORD_0":152
					},
					"indices":153,
					"material":0
				}
			]
		},
		{
			"name":"Mesh.002",
			"primitives":[
				{
					"attributes":{
						"POSITION":154,
						"NORMAL":155,
						"TEXCOORD_0":156
					},
					"indices":157,
					"material":0
				}
			]
		}
	],
	"textures":[
		{
			"sampler":0,
			"source":0
		}
	],
	"images":[
		{
			"mimeType":"image/png",
			"name":"Engine Texture",
			"uri":"Engine%20Texture.png"
		}
	],
	"accessors":[
		{
			"bufferView":0,
			"componentType":5126,
			"count":336,
			"max":[
				0.02834688127040863,
				0.5673925280570984,
				0.4413713216781616
			],
			"min":[
				0.006512733176350594,
				-0.5534246563911438,
				-0.6606143712997437
			],
			"type":"VEC3"
		},
		{
			"bufferView":1,
			"componentType":5126,
			"count":336,
			"type":"VEC3"
		},
		{
			"bufferView":2,
			"componentType":5126,
			"count":336,
			"type":"VEC2"
		},
		{
			"bufferView":3,
			"componentType":5123,
			"count":960,
			"type":"SCALAR"
		},
		{
			"bufferView":4,
			"componentType":5126,
			"count":25525,
			"max":[
				0.8706879615783691,
				1.3302112817764282,
				3.1688413619995117
			],
			"min":[
				-1.534715175628662,
				-2.297274112701416,
				-1.4608259201049805
			],
			"type":"VEC3"
		},
		{
			"bufferView":5,
			"componentType":5126,
			"count":25525,
			"type":"VEC3"
		},
		{
			"bufferView":6,
			"componentType":5126,
			"count":25525,
			"type":"VEC2"
		},
		{
			"bufferView":7,
			"componentType":5123,
			"count":107274,
			"type":"SCALAR"
		},
		{
			"bufferView":8,
			"componentType":5126,
			"count":22713,
			"max":[
				0.6705513000488281,
				0.6746950149536133,
				0.5593596696853638
			],
			"min":[
				-0.6077861785888672,
				-0.5771381855010986,
				-0.5596884489059448
			],
			"type":"VEC3"
		},
		{
			"bufferView":9,
			"componentType":5126,
			"count":22713,
			"type":"VEC3"
		},
		{
			"bufferView":10,
			"componentType":5126,
			"count":22713,
			"type":"VEC2"
		},
		{
			"bufferView":11,
			"componentType":5123,
			"count":93336,
			"type":"SCALAR"
		},
		{
			"bufferView":12,
			"componentType":5126,
			"count":11248,
			"max":[
				0.06449292600154877,
				0.6362960934638977,
				0.4705757796764374
			],
			"min":[
				-0.06367819756269455,
				-0.6398156881332397,
				-0.6743983626365662
			],
			"type":"VEC3"
		},
		{
			"bufferView":13,
			"componentType":5126,
			"count":11248,
			"type":"VEC3"
		},
		{
			"bufferView":14,
			"componentType":5126,
			"count":11248,
			"type":"VEC2"
		},
		{
			"bufferView":15,
			"componentType":5123,
			"count":46548,
			"type":"SCALAR"
		},
		{
			"bufferView":16,
			"componentType":5126,
			"count":1211,
			"max":[
				0.7351341247558594,
				1.0846047401428223,
				0.9529736042022705
			],
			"min":[
				-0.9646072387695312,
				-1.2072234153747559,
				-2.5967819690704346
			],
			"type":"VEC3"
		},
		{
			"bufferView":17,
			"componentType":5126,
			"count":1211,
			"type":"VEC3"
		},
		{
			"bufferView":18,
			"componentType":5126,
			"count":1211,
			"type":"VEC2"
		},
		{
			"bufferView":19,
			"componentType":5123,
			"count":5520,
			"type":"SCALAR"
		},
		{
			"bufferView":20,
			"componentType":5126,
			"count":11248,
			"max":[
				0.06449292600154877,
				0.6362960934638977,
				0.4705757796764374
			],
			"min":[
				-0.06367819756269455,
				-0.6398156881332397,
				-0.6743983626365662
			],
			"type":"VEC3"
		},
		{
			"bufferView":21,
			"componentType":5126,
			"count":11248,
			"type":"VEC3"
		},
		{
			"bufferView":22,
			"componentType":5126,
			"count":11248,
			"type":"VEC2"
		},
		{
			"bufferView":23,
			"componentType":5123,
			"count":46548,
			"type":"SCALAR"
		},
		{
			"bufferView":24,
			"componentType":5126,
			"count":336,
			"max":[
				0.02834688127040863,
				0.5673925280570984,
				0.4413713216781616
			],
			"min":[
				0.006512733176350594,
				-0.5534246563911438,
				-0.6606143712997437
			],
			"type":"VEC3"
		},
		{
			"bufferView":25,
			"componentType":5126,
			"count":336,
			"type":"VEC3"
		},
		{
			"bufferView":26,
			"componentType":5126,
			"count":336,
			"type":"VEC2"
		},
		{
			"bufferView":27,
			"componentType":5126,
			"count":178,
			"max":[
				0.07509317994117737,
				0.013549037277698517,
				0.04633922502398491
			],
			"min":[
				-0.12625233829021454,
				-0.03299654647707939,
				-0.10281266272068024
			],
			"type":"VEC3"
		},
		{
			"bufferView":28,
			"componentType":5126,
			"count":178,
			"type":"VEC3"
		},
		{
			"bufferView":29,
			"componentType":5126,
			"count":178,
			"type":"VEC2"
		},
		{
			"bufferView":30,
			"componentType":5123,
			"count":777,
			"type":"SCALAR"
		},
		{
			"bufferView":31,
			"componentType":5126,
			"count":8436,
			"max":[
				14.72510814666748,
				1.3669769763946533,
				16.142074584960938
			],
			"min":[
				-16.840166091918945,
				-3.2276694774627686,
				-15.428001403808594
			],
			"type":"VEC3"
		},
		{
			"bufferView":32,
			"componentType":5126,
			"count":8436,
			"type":"VEC3"
		},
		{
			"bufferView":33,
			"componentType":5126,
			"count":8436,
			"type":"VEC2"
		},
		{
			"bufferView":34,
			"componentType":5123,
			"count":39252,
			"type":"SCALAR"
		},
		{
			"bufferView":35,
			"componentType":5126,
			"count":96351,
			"max":[
				63.99024963378906,
				60.43309020996094,
				56.541160583496094
			],
			"min":[
				-43.2220458984375,
				-31.416946411132812,
				-55.32633972167969
			],
			"type":"VEC3"
		},
		{
			"bufferView":36,
			"componentType":5126,
			"count":96351,
			"type":"VEC3"
		},
		{
			"bufferView":37,
			"componentType":5126,
			"count":96351,
			"type":"VEC2"
		},
		{
			"bufferView":38,
			"componentType":5121,
			"count":96351,
			"normalized":true,
			"type":"VEC4"
		},
		{
			"bufferView":39,
			"componentType":5123,
			"count":96351,
			"normalized":true,
			"type":"VEC4"
		},
		{
			"bufferView":40,
			"componentType":5123,
			"count":96351,
			"normalized":true,
			"type":"VEC4"
		},
		{
			"bufferView":41,
			"componentType":5125,
			"count":435342,
			"type":"SCALAR"
		},
		{
			"bufferView":42,
			"componentType":5126,
			"count":512,
			"max":[
				80.84142303466797,
				98.96316528320312,
				-31.535789489746094
			],
			"min":[
				-84.6124038696289,
				-73.79197692871094,
				-35.92793273925781
			],
			"type":"VEC3"
		},
		{
			"bufferView":43,
			"componentType":5126,
			"count":512,
			"type":"VEC3"
		},
		{
			"bufferView":44,
			"componentType":5126,
			"count":512,
			"type":"VEC2"
		},
		{
			"bufferView":45,
			"componentType":5123,
			"count":768,
			"type":"SCALAR"
		},
		{
			"bufferView":46,
			"componentType":5126,
			"count":8502,
			"max":[
				138.98593139648438,
				138.32534790039062,
				105.07534790039062
			],
			"min":[
				-139.9921875,
				-143.91522216796875,
				-47.196067810058594
			],
			"type":"VEC3"
		},
		{
			"bufferView":47,
			"componentType":5126,
			"count":8502,
			"type":"VEC3"
		},
		{
			"bufferView":48,
			"componentType":5126,
			"count":8502,
			"type":"VEC2"
		},
		{
			"bufferView":49,
			"componentType":5123,
			"count":29703,
			"type":"SCALAR"
		},
		{
			"bufferView":50,
			"componentType":5126,
			"count":34,
			"max":[
				16.372055053710938,
				24.11378288269043,
				8.077446937561035
			],
			"min":[
				-14.455245018005371,
				-25.243425369262695,
				-11.960349082946777
			],
			"type":"VEC3"
		},
		{
			"bufferView":51,
			"componentType":5126,
			"count":34,
			"type":"VEC3"
		},
		{
			"bufferView":52,
			"componentType":5126,
			"count":34,
			"type":"VEC2"
		},
		{
			"bufferView":53,
			"componentType":5123,
			"count":120,
			"type":"SCALAR"
		},
		{
			"bufferView":54,
			"componentType":5126,
			"count":6,
			"max":[
				4.991981506347656,
				3.1422119140625,
				3.4477920532226562
			],
			"min":[
				-5.345726013183594,
				-2.977142333984375,
				-3.449138641357422
			],
			"type":"VEC3"
		},
		{
			"bufferView":55,
			"componentType":5126,
			"count":6,
			"type":"VEC3"
		},
		{
			"bufferView":56,
			"componentType":5126,
			"count":6,
			"type":"VEC2"
		},
		{
			"bufferView":57,
			"componentType":5123,
			"count":12,
			"type":"SCALAR"
		},
		{
			"bufferView":58,
			"componentType":5126,
			"count":695,
			"max":[
				1.496874451637268,
				0.7043778896331787,
				1.4333724975585938
			],
			"min":[
				-1.500089168548584,
				-0.4650700092315674,
				-3.1605796813964844
			],
			"type":"VEC3"
		},
		{
			"bufferView":59,
			"componentType":5126,
			"count":695,
			"type":"VEC3"
		},
		{
			"bufferView":60,
			"componentType":5126,
			"count":695,
			"type":"VEC2"
		},
		{
			"bufferView":61,
			"componentType":5123,
			"count":2289,
			"type":"SCALAR"
		},
		{
			"bufferView":62,
			"componentType":5126,
			"count":695,
			"max":[
				1.496874451637268,
				0.4650700092315674,
				1.4333724975585938
			],
			"min":[
				-1.500089168548584,
				-0.7043778896331787,
				-3.1605796813964844
			],
			"type":"VEC3"
		},
		{
			"bufferView":63,
			"componentType":5126,
			"count":695,
			"type":"VEC3"
		},
		{
			"bufferView":64,
			"componentType":5126,
			"count":695,
			"type":"VEC2"
		},
		{
			"bufferView":65,
			"componentType":5123,
			"count":2289,
			"type":"SCALAR"
		},
		{
			"bufferView":66,
			"componentType":5126,
			"count":595,
			"max":[
				1.04374098777771,
				0.15012036263942719,
				1.0420140027999878
			],
			"min":[
				-1.0436795949935913,
				-0.3347722887992859,
				-1.0454065799713135
			],
			"type":"VEC3"
		},
		{
			"bufferView":67,
			"componentType":5126,
			"count":595,
			"type":"VEC3"
		},
		{
			"bufferView":68,
			"componentType":5126,
			"count":595,
			"type":"VEC2"
		},
		{
			"bufferView":69,
			"componentType":5123,
			"count":2040,
			"type":"SCALAR"
		},
		{
			"bufferView":70,
			"componentType":5126,
			"count":877,
			"max":[
				79.6603012084961,
				80.51123046875,
				6.340206623077393
			],
			"min":[
				-79.65852355957031,
				-80.50992584228516,
				-6.745208740234375
			],
			"type":"VEC3"
		},
		{
			"bufferView":71,
			"componentType":5126,
			"count":877,
			"type":"VEC3"
		},
		{
			"bufferView":72,
			"componentType":5126,
			"count":877,
			"type":"VEC2"
		},
		{
			"bufferView":73,
			"componentType":5123,
			"count":3354,
			"type":"SCALAR"
		},
		{
			"bufferView":74,
			"componentType":5126,
			"count":468,
			"max":[
				144.43785095214844,
				143.39315795898438,
				0.4514075517654419
			],
			"min":[
				-129.4234161376953,
				-137.93060302734375,
				-0.4514056444168091
			],
			"type":"VEC3"
		},
		{
			"bufferView":75,
			"componentType":5126,
			"count":468,
			"type":"VEC3"
		},
		{
			"bufferView":76,
			"componentType":5126,
			"count":468,
			"type":"VEC2"
		},
		{
			"bufferView":77,
			"componentType":5123,
			"count":1164,
			"type":"SCALAR"
		},
		{
			"bufferView":78,
			"componentType":5126,
			"count":547,
			"max":[
				3.3798091411590576,
				1.4665247201919556,
				3.2476916313171387
			],
			"min":[
				-3.1271920204162598,
				-1.665067434310913,
				-2.7323036193847656
			],
			"type":"VEC3"
		},
		{
			"bufferView":79,
			"componentType":5126,
			"count":547,
			"type":"VEC3"
		},
		{
			"bufferView":80,
			"componentType":5126,
			"count":547,
			"type":"VEC2"
		},
		{
			"bufferView":81,
			"componentType":5123,
			"count":1551,
			"type":"SCALAR"
		},
		{
			"bufferView":82,
			"componentType":5126,
			"count":987,
			"max":[
				8.193729400634766,
				0.6966811418533325,
				10.266292572021484
			],
			"min":[
				-11.048728942871094,
				-0.934962809085846,
				-8.504446983337402
			],
			"type":"VEC3"
		},
		{
			"bufferView":83,
			"componentType":5126,
			"count":987,
			"type":"VEC3"
		},
		{
			"bufferView":84,
			"componentType":5126,
			"count":987,
			"type":"VEC2"
		},
		{
			"bufferView":85,
			"componentType":5123,
			"count":4104,
			"type":"SCALAR"
		},
		{
			"bufferView":86,
			"componentType":5126,
			"count":1152,
			"max":[
				2.5809426307678223,
				0.6288092136383057,
				1.8127825260162354
			],
			"min":[
				-3.990027904510498,
				-1.4489620923995972,
				-1.8220958709716797
			],
			"type":"VEC3"
		},
		{
			"bufferView":87,
			"componentType":5126,
			"count":1152,
			"type":"VEC3"
		},
		{
			"bufferView":88,
			"componentType":5126,
			"count":1152,
			"type":"VEC2"
		},
		{
			"bufferView":89,
			"componentType":5123,
			"count":2940,
			"type":"SCALAR"
		},
		{
			"bufferView":90,
			"componentType":5126,
			"count":1648,
			"max":[
				8.04206371307373,
				6.985069751739502,
				2.7395577430725098
			],
			"min":[
				-2.230884552001953,
				-8.84722900390625,
				-2.994004011154175
			],
			"type":"VEC3"
		},
		{
			"bufferView":91,
			"componentType":5126,
			"count":1648,
			"type":"VEC3"
		},
		{
			"bufferView":92,
			"componentType":5126,
			"count":1648,
			"type":"VEC2"
		},
		{
			"bufferView":93,
			"componentType":5123,
			"count":6534,
			"type":"SCALAR"
		},
		{
			"bufferView":94,
			"componentType":5126,
			"count":3547,
			"max":[
				123.20993041992188,
				134.24911499023438,
				66.14836120605469
			],
			"min":[
				-128.16107177734375,
				-111.03820037841797,
				-82.28583526611328
			],
			"type":"VEC3"
		},
		{
			"bufferView":95,
			"componentType":5126,
			"count":3547,
			"type":"VEC3"
		},
		{
			"bufferView":96,
			"componentType":5126,
			"count":3547,
			"type":"VEC2"
		},
		{
			"bufferView":97,
			"componentType":5123,
			"count":12384,
			"type":"SCALAR"
		},
		{
			"bufferView":98,
			"componentType":5126,
			"count":34,
			"max":[
				52.55512619018555,
				56.29779815673828,
				3.0517578125e-05
			],
			"min":[
				-56.668922424316406,
				-51.4785270690918,
				-1.52587890625e-05
			],
			"type":"VEC3"
		},
		{
			"bufferView":99,
			"componentType":5126,
			"count":34,
			"type":"VEC3"
		},
		{
			"bufferView":100,
			"componentType":5126,
			"count":34,
			"type":"VEC2"
		},
		{
			"bufferView":101,
			"componentType":5123,
			"count":96,
			"type":"SCALAR"
		},
		{
			"bufferView":102,
			"componentType":5126,
			"count":912,
			"max":[
				6.055600166320801,
				1.6034612655639648,
				4.005363941192627
			],
			"min":[
				-2.3905677795410156,
				-1.7995548248291016,
				-2.168911933898926
			],
			"type":"VEC3"
		},
		{
			"bufferView":103,
			"componentType":5126,
			"count":912,
			"type":"VEC3"
		},
		{
			"bufferView":104,
			"componentType":5126,
			"count":912,
			"type":"VEC2"
		},
		{
			"bufferView":105,
			"componentType":5123,
			"count":2682,
			"type":"SCALAR"
		},
		{
			"bufferView":106,
			"componentType":5126,
			"count":896,
			"max":[
				4.09963846206665,
				2.1678404808044434,
				1.4894423484802246
			],
			"min":[
				-2.0578582286834717,
				-4.9083428382873535,
				-1.493091344833374
			],
			"type":"VEC3"
		},
		{
			"bufferView":107,
			"componentType":5126,
			"count":896,
			"type":"VEC3"
		},
		{
			"bufferView":108,
			"componentType":5126,
			"count":896,
			"type":"VEC2"
		},
		{
			"bufferView":109,
			"componentType":5123,
			"count":3834,
			"type":"SCALAR"
		},
		{
			"bufferView":110,
			"componentType":5126,
			"count":421,
			"max":[
				1.0955339670181274,
				0.10803553462028503,
				1.09553062915802
			],
			"min":[
				-1.0955281257629395,
				-0.16029934585094452,
				-1.0955300331115723
			],
			"type":"VEC3"
		},
		{
			"bufferView":111,
			"componentType":5126,
			"count":421,
			"type":"VEC3"
		},
		{
			"bufferView":112,
			"componentType":5126,
			"count":421,
			"type":"VEC2"
		},
		{
			"bufferView":113,
			"componentType":5123,
			"count":1536,
			"type":"SCALAR"
		},
		{
			"bufferView":114,
			"componentType":5126,
			"count":397,
			"max":[
				11.195391654968262,
				9.222259521484375,
				2.9904489517211914
			],
			"min":[
				-9.295642852783203,
				-11.716629981994629,
				-3.307657241821289
			],
			"type":"VEC3"
		},
		{
			"bufferView":115,
			"componentType":5126,
			"count":397,
			"type":"VEC3"
		},
		{
			"bufferView":116,
			"componentType":5126,
			"count":397,
			"type":"VEC2"
		},
		{
			"bufferView":117,
			"componentType":5123,
			"count":1440,
			"type":"SCALAR"
		},
		{
			"bufferView":118,
			"componentType":5126,
			"count":17,
			"max":[
				-0.4632284641265869,
				0.02578209899365902,
				0.3822357654571533
			],
			"min":[
				-1.4382115602493286,
				-0.16286638379096985,
				-0.4039817452430725
			],
			"type":"VEC3"
		},
		{
			"bufferView":119,
			"componentType":5126,
			"count":17,
			"type":"VEC3"
		},
		{
			"bufferView":120,
			"componentType":5126,
			"count":17,
			"type":"VEC2"
		},
		{
			"bufferView":121,
			"componentType":5123,
			"count":45,
			"type":"SCALAR"
		},
		{
			"bufferView":122,
			"componentType":5126,
			"count":19,
			"max":[
				2.166354179382324,
				0.5083730816841125,
				0.40775203704833984
			],
			"min":[
				-0.47446703910827637,
				0.010108834132552147,
				-0.3963620960712433
			],
			"type":"VEC3"
		},
		{
			"bufferView":123,
			"componentType":5126,
			"count":19,
			"type":"VEC3"
		},
		{
			"bufferView":124,
			"componentType":5126,
			"count":19,
			"type":"VEC2"
		},
		{
			"bufferView":125,
			"componentType":5123,
			"count":51,
			"type":"SCALAR"
		},
		{
			"bufferView":126,
			"componentType":5126,
			"count":1781,
			"max":[
				0.6100986003875732,
				0.653537392616272,
				0.6121307611465454
			],
			"min":[
				-0.6259746551513672,
				-0.6781371831893921,
				-0.6239423751831055
			],
			"type":"VEC3"
		},
		{
			"bufferView":127,
			"componentType":5126,
			"count":1781,
			"type":"VEC3"
		},
		{
			"bufferView":128,
			"componentType":5126,
			"count":1781,
			"type":"VEC2"
		},
		{
			"bufferView":129,
			"componentType":5123,
			"count":6042,
			"type":"SCALAR"
		},
		{
			"bufferView":130,
			"componentType":5126,
			"count":906,
			"max":[
				0.8306670784950256,
				0.30393433570861816,
				0.7992974519729614
			],
			"min":[
				-0.8306673169136047,
				-0.3088398575782776,
				-0.6276100873947144
			],
			"type":"VEC3"
		},
		{
			"bufferView":131,
			"componentType":5126,
			"count":906,
			"type":"VEC3"
		},
		{
			"bufferView":132,
			"componentType":5126,
			"count":906,
			"type":"VEC2"
		},
		{
			"bufferView":133,
			"componentType":5123,
			"count":4128,
			"type":"SCALAR"
		},
		{
			"bufferView":134,
			"componentType":5126,
			"count":740,
			"max":[
				5.918558597564697,
				3.246720314025879,
				4.962733745574951
			],
			"min":[
				-5.01141357421875,
				-3.853957176208496,
				-4.985550403594971
			],
			"type":"VEC3"
		},
		{
			"bufferView":135,
			"componentType":5126,
			"count":740,
			"type":"VEC3"
		},
		{
			"bufferView":136,
			"componentType":5126,
			"count":740,
			"type":"VEC2"
		},
		{
			"bufferView":137,
			"componentType":5123,
			"count":1680,
			"type":"SCALAR"
		},
		{
			"bufferView":138,
			"componentType":5126,
			"count":194,
			"max":[
				0.8737927079200745,
				0.47394055128097534,
				0.8749768137931824
			],
			"min":[
				-3.151829719543457,
				-0.633170485496521,
				-0.8663551211357117
			],
			"type":"VEC3"
		},
		{
			"bufferView":139,
			"componentType":5126,
			"count":194,
			"type":"VEC3"
		},
		{
			"bufferView":140,
			"componentType":5126,
			"count":194,
			"type":"VEC2"
		},
		{
			"bufferView":141,
			"componentType":5123,
			"count":570,
			"type":"SCALAR"
		},
		{
			"bufferView":142,
			"componentType":5126,
			"count":1553,
			"max":[
				2.952826976776123,
				1.3594655990600586,
				1.9882110357284546
			],
			"min":[
				-2.163083553314209,
				-1.7083332538604736,
				-2.0500738620758057
			],
			"type":"VEC3"
		},
		{
			"bufferView":143,
			"componentType":5126,
			"count":1553,
			"type":"VEC3"
		},
		{
			"bufferView":144,
			"componentType":5126,
			"count":1553,
			"type":"VEC2"
		},
		{
			"bufferView":145,
			"componentType":5123,
			"count":4158,
			"type":"SCALAR"
		},
		{
			"bufferView":146,
			"componentType":5126,
			"count":48,
			"max":[
				0.42212769389152527,
				0.010002653114497662,
				0.12455856055021286
			],
			"min":[
				-0.45552894473075867,
				-0.010002494789659977,
				-0.12455857545137405
			],
			"type":"VEC3"
		},
		{
			"bufferView":147,
			"componentType":5126,
			"count":48,
			"type":"VEC3"
		},
		{
			"bufferView":148,
			"componentType":5126,
			"count":48,
			"type":"VEC2"
		},
		{
			"bufferView":149,
			"componentType":5123,
			"count":96,
			"type":"SCALAR"
		},
		{
			"bufferView":150,
			"componentType":5126,
			"count":156,
			"max":[
				0.9410421848297119,
				0.03836432471871376,
				0.29694366455078125
			],
			"min":[
				-0.6726973652839661,
				-0.03804634511470795,
				-0.32648369669914246
			],
			"type":"VEC3"
		},
		{
			"bufferView":151,
			"componentType":5126,
			"count":156,
			"type":"VEC3"
		},
		{
			"bufferView":152,
			"componentType":5126,
			"count":156,
			"type":"VEC2"
		},
		{
			"bufferView":153,
			"componentType":5123,
			"count":264,
			"type":"SCALAR"
		},
		{
			"bufferView":154,
			"componentType":5126,
			"count":4,
			"max":[
				0.0493389368057251,
				0,
				0.0493389368057251
			],
			"min":[
				-0.0493389368057251,
				0,
				-0.0493389368057251
			],
			"type":"VEC3"
		},
		{
			"bufferView":155,
			"componentType":5126,
			"count":4,
			"type":"VEC3"
		},
		{
			"bufferView":156,
			"componentType":5126,
			"count":4,
			"type":"VEC2"
		},
		{
			"bufferView":157,
			"componentType":5123,
			"count":6,
			"type":"SCALAR"
		}
	],
	"bufferViews":[
		{
			"buffer":0,
			"byteLength":4032,
			"byteOffset":0,
			"target":34962
		},
		{
			"buffer":0,
			"byteLength":4032,
			"byteOffset":4032,
			"target":34962
		},
		{
			"buffer":0,
			"byteLength":2688,
			"byteOffset":8064,
			"target":34962
		},
		{
			"buffer":0,
			"byteLength":1920,
			"byteOffset":10752,
			"target":34963
		},
		{
			"buffer":0,
			"byteLength":306300,
			"byteOffset":12672,
			"target":34962
		},
		{
			"buffer":0,
			"byteLength":306300,
			"byteOffset":318972,
			"target":34962
		},
		{
			"buffer":0,
			"byteLength":204200,
			"byteOffset":625272,
			"target":34962
		},
		{
			"buffer":0,
			"byteLength":214548,
			"byteOffset":829472,
			"target":34963
		},
		{
			"buffer":0,
			"byteLength":272556,
			"byteOffset":1044020,
			"target":34962
		},
		{
			"buffer":0,
			"byteLength":272556,
			"byteOffset":1316576,
			"target":34962
		},
		{
			"buffer":0,
			"byteLength":181704,
			"byteOffset":1589132,
			"target":34962
		},
		{
			"buffer":0,
			"byteLength":186672,
			"byteOffset":1770836,
			"target":34963
		},
		{
			"buffer":0,
			"byteLength":134976,
			"byteOffset":1957508,
			"target":34962
		},
		{
			"buffer":0,
			"byteLength":134976,
			"byteOffset":2092484,
			"target":34962
		},
		{
			"buffer":0,
			"byteLength":89984,
			"byteOffset":2227460,
			"target":34962
		},
		{
			"buffer":0,
			"byteLength":93096,
			"byteOffset":2317444,
			"target":34963
		},
		{
			"buffer":0,
			"byteLength":14532,
			"byteOffset":2410540,
			"target":34962
		},
		{
			"buffer":0,
			"byteLength":14532,
			"byteOffset":2425072,
			"target":34962
		},
		{
			"buffer":0,
			"byteLength":9688,
			"byteOffset":2439604,
			"target":34962
		},
		{
			"buffer":0,
			"byteLength":11040,
			"byteOffset":2449292,
			"target":34963
		},
		{
			"buffer":0,
			"byteLength":134976,
			"byteOffset":2460332,
			"target":34962
		},
		{
			"buffer":0,
			"byteLength":134976,
			"byteOffset":2595308,
			"target":34962
		},
		{
			"buffer":0,
			"byteLength":89984,
			"byteOffset":2730284,
			"target":34962
		},
		{
			"buffer":0,
			"byteLength":93096,
			"byteOffset":2820268,
			"target":34963
		},
		{
			"buffer":0,
			"byteLength":4032,
			"byteOffset":2913364,
			"target":34962
		},
		{
			"buffer":0,
			"byteLength":4032,
			"byteOffset":2917396,
			"target":34962
		},
		{
			"buffer":0,
			"byteLength":2688,
			"byteOffset":2921428,
			"target":34962
		},
		{
			"buffer":0,
			"byteLength":2136,
			"byteOffset":2924116,
			"target":34962
		},
		{
			"buffer":0,
			"byteLength":2136,
			"byteOffset":2926252,
			"target":34962
		},
		{
			"buffer":0,
			"byteLength":1424,
			"byteOffset":2928388,
			"target":34962
		},
		{
			"buffer":0,
			"byteLength":1554,
			"byteOffset":2929812,
			"target":34963
		},
		{
			"buffer":0,
			"byteLength":101232,
			"byteOffset":2931368,
			"target":34962
		},
		{
			"buffer":0,
			"byteLength":101232,
			"byteOffset":3032600,
			"target":34962
		},
		{
			"buffer":0,
			"byteLength":67488,
			"byteOffset":3133832,
			"target":34962
		},
		{
			"buffer":0,
			"byteLength":78504,
			"byteOffset":3201320,
			"target":34963
		},
		{
			"buffer":0,
			"byteLength":1156212,
			"byteOffset":3279824,
			"target":34962
		},
		{
			"buffer":0,
			"byteLength":1156212,
			"byteOffset":4436036,
			"target":34962
		},
		{
			"buffer":0,
			"byteLength":770808,
			"byteOffset":5592248,
			"target":34962
		},
		{
			"buffer":0,
			"byteLength":385404,
			"byteOffset":6363056,
			"target":34962
		},
		{
			"buffer":0,
			"byteLength":770808,
			"byteOffset":6748460,
			"target":34962
		},
		{
			"buffer":0,
			"byteLength":770808,
			"byteOffset":7519268,
			"target":34962
		},
		{
			"buffer":0,
			"byteLength":1741368,
			"byteOffset":8290076,
			"target":34963
		},
		{
			"buffer":0,
			"byteLength":6144,
			"byteOffset":10031444,
			"target":34962
		},
		{
			"buffer":0,
			"byteLength":6144,
			"byteOffset":10037588,
			"target":34962
		},
		{
			"buffer":0,
			"byteLength":4096,
			"byteOffset":10043732,
			"target":34962
		},
		{
			"buffer":0,
			"byteLength":1536,
			"byteOffset":10047828,
			"target":34963
		},
		{
			"buffer":0,
			"byteLength":102024,
			"byteOffset":10049364,
			"target":34962
		},
		{
			"buffer":0,
			"byteLength":102024,
			"byteOffset":10151388,
			"target":34962
		},
		{
			"buffer":0,
			"byteLength":68016,
			"byteOffset":10253412,
			"target":34962
		},
		{
			"buffer":0,
			"byteLength":59406,
			"byteOffset":10321428,
			"target":34963
		},
		{
			"buffer":0,
			"byteLength":408,
			"byteOffset":10380836,
			"target":34962
		},
		{
			"buffer":0,
			"byteLength":408,
			"byteOffset":10381244,
			"target":34962
		},
		{
			"buffer":0,
			"byteLength":272,
			"byteOffset":10381652,
			"target":34962
		},
		{
			"buffer":0,
			"byteLength":240,
			"byteOffset":10381924,
			"target":34963
		},
		{
			"buffer":0,
			"byteLength":72,
			"byteOffset":10382164,
			"target":34962
		},
		{
			"buffer":0,
			"byteLength":72,
			"byteOffset":10382236,
			"target":34962
		},
		{
			"buffer":0,
			"byteLength":48,
			"byteOffset":10382308,
			"target":34962
		},
		{
			"buffer":0,
			"byteLength":24,
			"byteOffset":10382356,
			"target":34963
		},
		{
			"buffer":0,
			"byteLength":8340,
			"byteOffset":10382380,
			"target":34962
		},
		{
			"buffer":0,
			"byteLength":8340,
			"byteOffset":10390720,
			"target":34962
		},
		{
			"buffer":0,
			"byteLength":5560,
			"byteOffset":10399060,
			"target":34962
		},
		{
			"buffer":0,
			"byteLength":4578,
			"byteOffset":10404620,
			"target":34963
		},
		{
			"buffer":0,
			"byteLength":8340,
			"byteOffset":10409200,
			"target":34962
		},
		{
			"buffer":0,
			"byteLength":8340,
			"byteOffset":10417540,
			"target":34962
		},
		{
			"buffer":0,
			"byteLength":5560,
			"byteOffset":10425880,
			"target":34962
		},
		{
			"buffer":0,
			"byteLength":4578,
			"byteOffset":10431440,
			"target":34963
		},
		{
			"buffer":0,
			"byteLength":7140,
			"byteOffset":10436020,
			"target":34962
		},
		{
			"buffer":0,
			"byteLength":7140,
			"byteOffset":10443160,
			"target":34962
		},
		{
			"buffer":0,
			"byteLength":4760,
			"byteOffset":10450300,
			"target":34962
		},
		{
			"buffer":0,
			"byteLength":4080,
			"byteOffset":10455060,
			"target":34963
		},
		{
			"buffer":0,
			"byteLength":10524,
			"byteOffset":10459140,
			"target":34962
		},
		{
			"buffer":0,
			"byteLength":10524,
			"byteOffset":10469664,
			"target":34962
		},
		{
			"buffer":0,
			"byteLength":7016,
			"byteOffset":10480188,
			"target":34962
		},
		{
			"buffer":0,
			"byteLength":6708,
			"byteOffset":10487204,
			"target":34963
		},
		{
			"buffer":0,
			"byteLength":5616,
			"byteOffset":10493912,
			"target":34962
		},
		{
			"buffer":0,
			"byteLength":5616,
			"byteOffset":10499528,
			"target":34962
		},
		{
			"buffer":0,
			"byteLength":3744,
			"byteOffset":10505144,
			"target":34962
		},
		{
			"buffer":0,
			"byteLength":2328,
			"byteOffset":10508888,
			"target":34963
		},
		{
			"buffer":0,
			"byteLength":6564,
			"byteOffset":10511216,
			"target":34962
		},
		{
			"buffer":0,
			"byteLength":6564,
			"byteOffset":10517780,
			"target":34962
		},
		{
			"buffer":0,
			"byteLength":4376,
			"byteOffset":10524344,
			"target":34962
		},
		{
			"buffer":0,
			"byteLength":3102,
			"byteOffset":10528720,
			"target":34963
		},
		{
			"buffer":0,
			"byteLength":11844,
			"byteOffset":10531824,
			"target":34962
		},
		{
			"buffer":0,
			"byteLength":11844,
			"byteOffset":10543668,
			"target":34962
		},
		{
			"buffer":0,
			"byteLength":7896,
			"byteOffset":10555512,
			"target":34962
		},
		{
			"buffer":0,
			"byteLength":8208,
			"byteOffset":10563408,
			"target":34963
		},
		{
			"buffer":0,
			"byteLength":13824,
			"byteOffset":10571616,
			"target":34962
		},
		{
			"buffer":0,
			"byteLength":13824,
			"byteOffset":10585440,
			"target":34962
		},
		{
			"buffer":0,
			"byteLength":9216,
			"byteOffset":10599264,
			"target":34962
		},
		{
			"buffer":0,
			"byteLength":5880,
			"byteOffset":10608480,
			"target":34963
		},
		{
			"buffer":0,
			"byteLength":19776,
			"byteOffset":10614360,
			"target":34962
		},
		{
			"buffer":0,
			"byteLength":19776,
			"byteOffset":10634136,
			"target":34962
		},
		{
			"buffer":0,
			"byteLength":13184,
			"byteOffset":10653912,
			"target":34962
		},
		{
			"buffer":0,
			"byteLength":13068,
			"byteOffset":10667096,
			"target":34963
		},
		{
			"buffer":0,
			"byteLength":42564,
			"byteOffset":10680164,
			"target":34962
		},
		{
			"buffer":0,
			"byteLength":42564,
			"byteOffset":10722728,
			"target":34962
		},
		{
			"buffer":0,
			"byteLength":28376,
			"byteOffset":10765292,
			"target":34962
		},
		{
			"buffer":0,
			"byteLength":24768,
			"byteOffset":10793668,
			"target":34963
		},
		{
			"buffer":0,
			"byteLength":408,
			"byteOffset":10818436,
			"target":34962
		},
		{
			"buffer":0,
			"byteLength":408,
			"byteOffset":10818844,
			"target":34962
		},
		{
			"buffer":0,
			"byteLength":272,
			"byteOffset":10819252,
			"target":34962
		},
		{
			"buffer":0,
			"byteLength":192,
			"byteOffset":10819524,
			"target":34963
		},
		{
			"buffer":0,
			"byteLength":10944,
			"byteOffset":10819716,
			"target":34962
		},
		{
			"buffer":0,
			"byteLength":10944,
			"byteOffset":10830660,
			"target":34962
		},
		{
			"buffer":0,
			"byteLength":7296,
			"byteOffset":10841604,
			"target":34962
		},
		{
			"buffer":0,
			"byteLength":5364,
			"byteOffset":10848900,
			"target":34963
		},
		{
			"buffer":0,
			"byteLength":10752,
			"byteOffset":10854264,
			"target":34962
		},
		{
			"buffer":0,
			"byteLength":10752,
			"byteOffset":10865016,
			"target":34962
		},
		{
			"buffer":0,
			"byteLength":7168,
			"byteOffset":10875768,
			"target":34962
		},
		{
			"buffer":0,
			"byteLength":7668,
			"byteOffset":10882936,
			"target":34963
		},
		{
			"buffer":0,
			"byteLength":5052,
			"byteOffset":10890604,
			"target":34962
		},
		{
			"buffer":0,
			"byteLength":5052,
			"byteOffset":10895656,
			"target":34962
		},
		{
			"buffer":0,
			"byteLength":3368,
			"byteOffset":10900708,
			"target":34962
		},
		{
			"buffer":0,
			"byteLength":3072,
			"byteOffset":10904076,
			"target":34963
		},
		{
			"buffer":0,
			"byteLength":4764,
			"byteOffset":10907148,
			"target":34962
		},
		{
			"buffer":0,
			"byteLength":4764,
			"byteOffset":10911912,
			"target":34962
		},
		{
			"buffer":0,
			"byteLength":3176,
			"byteOffset":10916676,
			"target":34962
		},
		{
			"buffer":0,
			"byteLength":2880,
			"byteOffset":10919852,
			"target":34963
		},
		{
			"buffer":0,
			"byteLength":204,
			"byteOffset":10922732,
			"target":34962
		},
		{
			"buffer":0,
			"byteLength":204,
			"byteOffset":10922936,
			"target":34962
		},
		{
			"buffer":0,
			"byteLength":136,
			"byteOffset":10923140,
			"target":34962
		},
		{
			"buffer":0,
			"byteLength":90,
			"byteOffset":10923276,
			"target":34963
		},
		{
			"buffer":0,
			"byteLength":228,
			"byteOffset":10923368,
			"target":34962
		},
		{
			"buffer":0,
			"byteLength":228,
			"byteOffset":10923596,
			"target":34962
		},
		{
			"buffer":0,
			"byteLength":152,
			"byteOffset":10923824,
			"target":34962
		},
		{
			"buffer":0,
			"byteLength":102,
			"byteOffset":10923976,
			"target":34963
		},
		{
			"buffer":0,
			"byteLength":21372,
			"byteOffset":10924080,
			"target":34962
		},
		{
			"buffer":0,
			"byteLength":21372,
			"byteOffset":10945452,
			"target":34962
		},
		{
			"buffer":0,
			"byteLength":14248,
			"byteOffset":10966824,
			"target":34962
		},
		{
			"buffer":0,
			"byteLength":12084,
			"byteOffset":10981072,
			"target":34963
		},
		{
			"buffer":0,
			"byteLength":10872,
			"byteOffset":10993156,
			"target":34962
		},
		{
			"buffer":0,
			"byteLength":10872,
			"byteOffset":11004028,
			"target":34962
		},
		{
			"buffer":0,
			"byteLength":7248,
			"byteOffset":11014900,
			"target":34962
		},
		{
			"buffer":0,
			"byteLength":8256,
			"byteOffset":11022148,
			"target":34963
		},
		{
			"buffer":0,
			"byteLength":8880,
			"byteOffset":11030404,
			"target":34962
		},
		{
			"buffer":0,
			"byteLength":8880,
			"byteOffset":11039284,
			"target":34962
		},
		{
			"buffer":0,
			"byteLength":5920,
			"byteOffset":11048164,
			"target":34962
		},
		{
			"buffer":0,
			"byteLength":3360,
			"byteOffset":11054084,
			"target":34963
		},
		{
			"buffer":0,
			"byteLength":2328,
			"byteOffset":11057444,
			"target":34962
		},
		{
			"buffer":0,
			"byteLength":2328,
			"byteOffset":11059772,
			"target":34962
		},
		{
			"buffer":0,
			"byteLength":1552,
			"byteOffset":11062100,
			"target":34962
		},
		{
			"buffer":0,
			"byteLength":1140,
			"byteOffset":11063652,
			"target":34963
		},
		{
			"buffer":0,
			"byteLength":18636,
			"byteOffset":11064792,
			"target":34962
		},
		{
			"buffer":0,
			"byteLength":18636,
			"byteOffset":11083428,
			"target":34962
		},
		{
			"buffer":0,
			"byteLength":12424,
			"byteOffset":11102064,
			"target":34962
		},
		{
			"buffer":0,
			"byteLength":8316,
			"byteOffset":11114488,
			"target":34963
		},
		{
			"buffer":0,
			"byteLength":576,
			"byteOffset":11122804,
			"target":34962
		},
		{
			"buffer":0,
			"byteLength":576,
			"byteOffset":11123380,
			"target":34962
		},
		{
			"buffer":0,
			"byteLength":384,
			"byteOffset":11123956,
			"target":34962
		},
		{
			"buffer":0,
			"byteLength":192,
			"byteOffset":11124340,
			"target":34963
		},
		{
			"buffer":0,
			"byteLength":1872,
			"byteOffset":11124532,
			"target":34962
		},
		{
			"buffer":0,
			"byteLength":1872,
			"byteOffset":11126404,
			"target":34962
		},
		{
			"buffer":0,
			"byteLength":1248,
			"byteOffset":11128276,
			"target":34962
		},
		{
			"buffer":0,
			"byteLength":528,
			"byteOffset":11129524,
			"target":34963
		},
		{
			"buffer":0,
			"byteLength":48,
			"byteOffset":11130052,
			"target":34962
		},
		{
			"buffer":0,
			"byteLength":48,
			"byteOffset":11130100,
			"target":34962
		},
		{
			"buffer":0,
			"byteLength":32,
			"byteOffset":11130148,
			"target":34962
		},
		{
			"buffer":0,
			"byteLength":12,
			"byteOffset":11130180,
			"target":34963
		}
	],
	"samplers":[
		{
			"magFilter":9729,
			"minFilter":9987
		}
	],
	"buffers":[
		{
			"byteLength":11130192,
			"uri":"ENGINE%20PROJECT.bin"
		}
	]
}
