{
	"asset":{
		"generator":"Khronos glTF Blender I/O v4.3.47",
		"version":"2.0"
	},
	"scene":0,
	"scenes":[
		{
			"name":"Scene",
			"nodes":[
				25
			]
		}
	],
	"nodes":[
		{
			"name":"imagePlane1",
			"rotation":[
				0,
				0,
				0.7071068286895752,
				0.7071068286895752
			],
			"scale":[
				476.2598876953125,
				476.2598876953125,
				476.2598876953125
			],
			"translation":[
				-11.178545951843262,
				58.76319885253906,
				-162.43740844726562
			]
		},
		{
			"mesh":0,
			"name":"QAD_RING"
		},
		{
			"children":[
				1
			],
			"mesh":1,
			"name":"MAIN_GEARBOX",
			"rotation":[
				0.005291234701871872,
				-7.926426769699901e-05,
				0.014978406950831413,
				0.9998738169670105
			],
			"scale":[
				0.8938611149787903,
				0.8938612341880798,
				0.8938609957695007
			],
			"translation":[
				0.37869250774383545,
				-52.954811096191406,
				-12.379964828491211
			]
		},
		{
			"mesh":2,
			"name":"STARTER_AIR_DUCT1",
			"rotation":[
				0,
				0,
				0.7071068286895752,
				0.7071068286895752
			],
			"translation":[
				-4.587244033813477,
				4.55759859085083,
				0
			]
		},
		{
			"mesh":3,
			"name":"STARTER_AIR_VALVE",
			"rotation":[
				0,
				0,
				0.7071068286895752,
				0.7071068286895752
			],
			"translation":[
				-4.587244033813477,
				4.55759859085083,
				0
			]
		},
		{
			"mesh":4,
			"name":"V_BAND_CLAMP",
			"rotation":[
				0,
				0,
				0.7071068286895752,
				0.7071068286895752
			],
			"translation":[
				-4.587244033813477,
				4.55759859085083,
				0
			]
		},
		{
			"children":[
				3,
				4,
				5
			],
			"mesh":5,
			"name":"STARTER_AIR_DUCT",
			"scale":[
				15.34404468536377,
				15.34404468536377,
				15.34404468536377
			],
			"translation":[
				43.29570007324219,
				-5.462767601013184,
				-161.4563751220703
			]
		},
		{
			"mesh":6,
			"name":"Air_Inlet_Housing",
			"rotation":[
				0,
				0,
				-0.7070980072021484,
				0.7071155309677124
			],
			"scale":[
				0.0874970480799675,
				0.0874970480799675,
				0.0874970480799675
			],
			"translation":[
				0,
				0,
				3.6902084350585938
			]
		},
		{
			"mesh":7,
			"name":"Air_Turbine_Starter",
			"rotation":[
				0,
				0,
				-0.8696735501289368,
				0.4936273992061615
			],
			"scale":[
				0.0874970480799675,
				0.0874970480799675,
				0.0874970480799675
			],
			"translation":[
				-8.343589782714844,
				-0.6185989379882812,
				29.448795318603516
			]
		},
		{
			"mesh":8,
			"name":"Cube.001",
			"rotation":[
				0.6170790195465088,
				-0.34527304768562317,
				0.6170790791511536,
				0.3452729284763336
			],
			"scale":[
				2.220789670944214,
				2.220789909362793,
				2.220789909362793
			],
			"translation":[
				-8.755781173706055,
				-4.904136657714844,
				24.13699722290039
			]
		},
		{
			"mesh":9,
			"name":"Cylinder",
			"rotation":[
				0.70710688829422,
				0,
				0,
				0.7071066498756409
			],
			"scale":[
				3.0015878677368164,
				3.0015878677368164,
				3.0015878677368164
			],
			"translation":[
				0.2886772155761719,
				0.239715576171875,
				32.87726974487305
			]
		},
		{
			"mesh":10,
			"name":"Cylinder.001",
			"rotation":[
				0,
				0,
				-0.8696735501289368,
				0.4936273992061615
			],
			"scale":[
				0.0874970480799675,
				0.0874970480799675,
				0.0874970480799675
			],
			"translation":[
				0.2882404327392578,
				0.2535552978515625,
				32.571014404296875
			]
		},
		{
			"mesh":11,
			"name":"Cylinder.002",
			"rotation":[
				0,
				0,
				-0.8696735501289368,
				0.4936273992061615
			],
			"scale":[
				0.0874970480799675,
				0.0874970480799675,
				0.0874970480799675
			],
			"translation":[
				2.522703170776367,
				-11.549613952636719,
				20.440580368041992
			]
		},
		{
			"mesh":12,
			"name":"GTF.007",
			"scale":[
				0.587688148021698,
				0.587688148021698,
				0.587688148021698
			],
			"translation":[
				-0.2299823760986328,
				0.06565093994140625,
				5.693672180175781
			]
		},
		{
			"mesh":13,
			"name":"GTF.011",
			"rotation":[
				0.11053118854761124,
				-0.17428183555603027,
				-0.15003444254398346,
				0.966901421546936
			],
			"scale":[
				0.22674404084682465,
				0.2264440357685089,
				0.23710179328918457
			],
			"translation":[
				-7.949981689453125,
				3.31890869140625,
				29.760791778564453
			]
		},
		{
			"mesh":14,
			"name":"Magnetic_Plug_Assembly",
			"rotation":[
				0.5000811219215393,
				0.4912922978401184,
				0.5144295692443848,
				0.4938754737377167
			],
			"scale":[
				0.3810211420059204,
				0.3805170953273773,
				0.3984263837337494
			],
			"translation":[
				0.3484077453613281,
				-9.798919677734375,
				25.21413803100586
			]
		},
		{
			"mesh":15,
			"name":"Output_Shaft",
			"rotation":[
				0.70710688829422,
				0,
				0,
				0.7071066498756409
			],
			"scale":[
				3.0015878677368164,
				3.0015878677368164,
				3.0015878677368164
			],
			"translation":[
				0.28867530822753906,
				0.25019073486328125,
				33.843936920166016
			]
		},
		{
			"mesh":16,
			"name":"Plane",
			"scale":[
				7.480880260467529,
				7.480880260467529,
				7.480880260467529
			],
			"translation":[
				0.34699249267578125,
				10.85552978515625,
				25.645998001098633
			]
		},
		{
			"mesh":17,
			"name":"Plane.003",
			"rotation":[
				-0.2550007700920105,
				0.962495744228363,
				0.09099803864955902,
				0.017202671617269516
			],
			"scale":[
				0.9165494441986084,
				0.9165494441986084,
				0.9165495038032532
			],
			"translation":[
				0.2568531036376953,
				10.322555541992188,
				25.543664932250977
			]
		},
		{
			"mesh":18,
			"name":"Plane.004",
			"rotation":[
				-0.8998394012451172,
				0.4362213611602783,
				0,
				5.071817668067524e-07
			],
			"scale":[
				0.9165494441986084,
				0.9165494441986084,
				0.9165495038032532
			],
			"translation":[
				-8.351655960083008,
				-5.610923767089844,
				26.813739776611328
			]
		},
		{
			"mesh":19,
			"name":"Plane.008",
			"rotation":[
				0.6951330304145813,
				-0.12957771122455597,
				0.639559268951416,
				0.3016018569469452
			],
			"scale":[
				0.8678950071334839,
				0.8678950071334839,
				0.8678950071334839
			],
			"translation":[
				-3.8537731170654297,
				-7.0572662353515625,
				29.950355529785156
			]
		},
		{
			"mesh":20,
			"name":"Starter_Speed_Sensor",
			"rotation":[
				0.44404324889183044,
				-0.5473144054412842,
				0.43173274397850037,
				0.5629204511642456
			],
			"scale":[
				1.2211024761199951,
				1.2211027145385742,
				1.2211025953292847
			],
			"translation":[
				-9.75394058227539,
				1.81866455078125,
				25.40100860595703
			]
		},
		{
			"mesh":21,
			"name":"Text",
			"rotation":[
				0,
				0,
				0.4920256733894348,
				0.8705806732177734
			],
			"scale":[
				2.4393391609191895,
				2.4393391609191895,
				2.4393389225006104
			],
			"translation":[
				-8.344497680664062,
				5.547821044921875,
				26.16836166381836
			]
		},
		{
			"mesh":22,
			"name":"Text.001",
			"rotation":[
				0.6306304335594177,
				-0.348021537065506,
				0.3962329626083374,
				0.5693730711936951
			],
			"scale":[
				1.0601582527160645,
				1.060158133506775,
				1.0601578950881958
			],
			"translation":[
				-7.967071533203125,
				-1.3719406127929688,
				30.156982421875
			]
		},
		{
			"children":[
				7,
				8,
				9,
				10,
				11,
				12,
				13,
				14,
				15,
				16,
				17,
				18,
				19,
				20,
				21,
				22,
				23
			],
			"mesh":23,
			"name":"STARTER_ctrl",
			"rotation":[
				-0.7071068286895752,
				0,
				0,
				0.7071068286895752
			],
			"scale":[
				1.4825260639190674,
				1.4825260639190674,
				1.4825260639190674
			],
			"translation":[
				-27.318265914916992,
				-55.173545837402344,
				-123.21072387695312
			]
		},
		{
			"children":[
				0,
				2,
				6,
				24
			],
			"name":"Full_Engine",
			"rotation":[
				0.7071068286895752,
				0,
				0,
				0.7071068286895752
			],
			"scale":[
				0.009999999776482582,
				0.009999999776482582,
				0.009999999776482582
			]
		}
	],
	"materials":[
		{
			"doubleSided":true,
			"name":"Metal",
			"pbrMetallicRoughness":{
				"baseColorFactor":[
					0.37433937191963196,
					0.3743426501750946,
					0.3743426501750946,
					1
				],
				"metallicFactor":0.5433070659637451,
				"roughnessFactor":0.31889763474464417
			}
		}
	],
	"meshes":[
		{
			"name":"Mesh.001",
			"primitives":[
				{
					"attributes":{
						"POSITION":0,
						"NORMAL":1,
						"TEXCOORD_0":2
					},
					"indices":3,
					"material":0
				}
			]
		},
		{
			"name":"Mesh",
			"primitives":[
				{
					"attributes":{
						"POSITION":4,
						"NORMAL":5,
						"TEXCOORD_0":6
					},
					"indices":7,
					"material":0
				}
			]
		},
		{
			"name":"Mesh.021",
			"primitives":[
				{
					"attributes":{
						"POSITION":8,
						"NORMAL":9,
						"TEXCOORD_0":10
					},
					"indices":11,
					"material":0
				}
			]
		},
		{
			"name":"Mesh.022",
			"primitives":[
				{
					"attributes":{
						"POSITION":12,
						"NORMAL":13,
						"TEXCOORD_0":14
					},
					"indices":15,
					"material":0
				}
			]
		},
		{
			"name":"Mesh.023",
			"primitives":[
				{
					"attributes":{
						"POSITION":16,
						"NORMAL":17,
						"TEXCOORD_0":18
					},
					"indices":19,
					"material":0
				}
			]
		},
		{
			"name":"Mesh.020",
			"primitives":[
				{
					"attributes":{
						"POSITION":20,
						"NORMAL":21,
						"TEXCOORD_0":22
					},
					"indices":23,
					"material":0
				}
			]
		},
		{
			"name":"Mesh.003",
			"primitives":[
				{
					"attributes":{
						"POSITION":24,
						"NORMAL":25,
						"TEXCOORD_0":26
					},
					"indices":27,
					"material":0
				}
			]
		},
		{
			"name":"Mesh.004",
			"primitives":[
				{
					"attributes":{
						"POSITION":28,
						"NORMAL":29,
						"TEXCOORD_0":30
					},
					"indices":31,
					"material":0
				}
			]
		},
		{
			"name":"Mesh.005",
			"primitives":[
				{
					"attributes":{
						"POSITION":32,
						"NORMAL":33,
						"TEXCOORD_0":34
					},
					"indices":35,
					"material":0
				}
			]
		},
		{
			"name":"Mesh.006",
			"primitives":[
				{
					"attributes":{
						"POSITION":36,
						"NORMAL":37,
						"TEXCOORD_0":38
					},
					"indices":39,
					"material":0
				}
			]
		},
		{
			"name":"Mesh.007",
			"primitives":[
				{
					"attributes":{
						"POSITION":40,
						"NORMAL":41,
						"TEXCOORD_0":42
					},
					"indices":43,
					"material":0
				}
			]
		},
		{
			"name":"Mesh.008",
			"primitives":[
				{
					"attributes":{
						"POSITION":44,
						"NORMAL":45,
						"TEXCOORD_0":46
					},
					"indices":47,
					"material":0
				}
			]
		},
		{
			"name":"Mesh.009",
			"primitives":[
				{
					"attributes":{
						"POSITION":48,
						"NORMAL":49,
						"TEXCOORD_0":50
					},
					"indices":51,
					"material":0
				}
			]
		},
		{
			"name":"Mesh.010",
			"primitives":[
				{
					"attributes":{
						"POSITION":52,
						"NORMAL":53,
						"TEXCOORD_0":54
					},
					"indices":55,
					"material":0
				}
			]
		},
		{
			"name":"Mesh.011",
			"primitives":[
				{
					"attributes":{
						"POSITION":56,
						"NORMAL":57,
						"TEXCOORD_0":58
					},
					"indices":59,
					"material":0
				}
			]
		},
		{
			"name":"Mesh.012",
			"primitives":[
				{
					"attributes":{
						"POSITION":60,
						"NORMAL":61,
						"TEXCOORD_0":62
					},
					"indices":63,
					"material":0
				}
			]
		},
		{
			"name":"Mesh.013",
			"primitives":[
				{
					"attributes":{
						"POSITION":64,
						"NORMAL":65,
						"TEXCOORD_0":66
					},
					"indices":67,
					"material":0
				}
			]
		},
		{
			"name":"Mesh.014",
			"primitives":[
				{
					"attributes":{
						"POSITION":68,
						"NORMAL":69,
						"TEXCOORD_0":70
					},
					"indices":71,
					"material":0
				}
			]
		},
		{
			"name":"Mesh.015",
			"primitives":[
				{
					"attributes":{
						"POSITION":72,
						"NORMAL":73,
						"TEXCOORD_0":74
					},
					"indices":75,
					"material":0
				}
			]
		},
		{
			"name":"Mesh.016",
			"primitives":[
				{
					"attributes":{
						"POSITION":76,
						"NORMAL":77,
						"TEXCOORD_0":78
					},
					"indices":79,
					"material":0
				}
			]
		},
		{
			"name":"Mesh.017",
			"primitives":[
				{
					"attributes":{
						"POSITION":80,
						"NORMAL":81,
						"TEXCOORD_0":82
					},
					"indices":83,
					"material":0
				}
			]
		},
		{
			"name":"Mesh.018",
			"primitives":[
				{
					"attributes":{
						"POSITION":84,
						"NORMAL":85,
						"TEXCOORD_0":86
					},
					"indices":87,
					"material":0
				}
			]
		},
		{
			"name":"Mesh.019",
			"primitives":[
				{
					"attributes":{
						"POSITION":88,
						"NORMAL":89,
						"TEXCOORD_0":90
					},
					"indices":91,
					"material":0
				}
			]
		},
		{
			"name":"Mesh.002",
			"primitives":[
				{
					"attributes":{
						"POSITION":92,
						"NORMAL":93,
						"TEXCOORD_0":94
					},
					"indices":95,
					"material":0
				}
			]
		}
	],
	"accessors":[
		{
			"bufferView":0,
			"componentType":5126,
			"count":5984,
			"max":[
				-11.116775512695312,
				60.0433464050293,
				-107.36453247070312
			],
			"min":[
				-46.446563720703125,
				54.09614562988281,
				-142.69175720214844
			],
			"type":"VEC3"
		},
		{
			"bufferView":1,
			"componentType":5126,
			"count":5984,
			"type":"VEC3"
		},
		{
			"bufferView":2,
			"componentType":5126,
			"count":5984,
			"type":"VEC2"
		},
		{
			"bufferView":3,
			"componentType":5123,
			"count":32112,
			"type":"SCALAR"
		},
		{
			"bufferView":4,
			"componentType":5126,
			"count":98466,
			"max":[
				42.89449691772461,
				136.38314819335938,
				-88.0763931274414
			],
			"min":[
				-64.3177719116211,
				44.53309631347656,
				-199.94384765625
			],
			"type":"VEC3"
		},
		{
			"bufferView":5,
			"componentType":5126,
			"count":98466,
			"type":"VEC3"
		},
		{
			"bufferView":6,
			"componentType":5126,
			"count":98466,
			"type":"VEC2"
		},
		{
			"bufferView":7,
			"componentType":5125,
			"count":434478,
			"type":"SCALAR"
		},
		{
			"bufferView":8,
			"componentType":5126,
			"count":38029,
			"max":[
				-7.094160079956055,
				1.1625615358352661,
				3.0213983058929443
			],
			"min":[
				-9.499563217163086,
				-2.464923858642578,
				-6.178693771362305
			],
			"type":"VEC3"
		},
		{
			"bufferView":9,
			"componentType":5126,
			"count":38029,
			"type":"VEC3"
		},
		{
			"bufferView":10,
			"componentType":5126,
			"count":38029,
			"type":"VEC2"
		},
		{
			"bufferView":11,
			"componentType":5123,
			"count":108474,
			"type":"SCALAR"
		},
		{
			"bufferView":12,
			"componentType":5126,
			"count":33208,
			"max":[
				-8.356084823608398,
				1.2892365455627441,
				-0.48365020751953125
			],
			"min":[
				-9.634422302246094,
				0.03740334510803223,
				-1.6026983261108398
			],
			"type":"VEC3"
		},
		{
			"bufferView":13,
			"componentType":5126,
			"count":33208,
			"type":"VEC3"
		},
		{
			"bufferView":14,
			"componentType":5126,
			"count":33208,
			"type":"VEC2"
		},
		{
			"bufferView":15,
			"componentType":5123,
			"count":93336,
			"type":"SCALAR"
		},
		{
			"bufferView":16,
			"componentType":5126,
			"count":16524,
			"max":[
				-7.092112064361572,
				0.6351029872894287,
				3.06060528755188
			],
			"min":[
				-7.2214274406433105,
				-0.652401328086853,
				1.905409336090088
			],
			"type":"VEC3"
		},
		{
			"bufferView":17,
			"componentType":5126,
			"count":16524,
			"type":"VEC3"
		},
		{
			"bufferView":18,
			"componentType":5126,
			"count":16524,
			"type":"VEC2"
		},
		{
			"bufferView":19,
			"componentType":5123,
			"count":46548,
			"type":"SCALAR"
		},
		{
			"bufferView":20,
			"componentType":5126,
			"count":2156,
			"max":[
				-4.034496784210205,
				-2.588466167449951,
				3.0213983058929443
			],
			"min":[
				-5.734238147735596,
				-4.880294322967529,
				-0.5283573269844055
			],
			"type":"VEC3"
		},
		{
			"bufferView":21,
			"componentType":5126,
			"count":2156,
			"type":"VEC3"
		},
		{
			"bufferView":22,
			"componentType":5126,
			"count":2156,
			"type":"VEC2"
		},
		{
			"bufferView":23,
			"componentType":5123,
			"count":5520,
			"type":"SCALAR"
		},
		{
			"bufferView":24,
			"componentType":5126,
			"count":3439,
			"max":[
				122.55094909667969,
				125.25592041015625,
				181.2833709716797
			],
			"min":[
				-128.82005310058594,
				-120.03138732910156,
				0.0002593994140625
			],
			"type":"VEC3"
		},
		{
			"bufferView":25,
			"componentType":5126,
			"count":3439,
			"type":"VEC3"
		},
		{
			"bufferView":26,
			"componentType":5126,
			"count":3439,
			"type":"VEC2"
		},
		{
			"bufferView":27,
			"componentType":5123,
			"count":11796,
			"type":"SCALAR"
		},
		{
			"bufferView":28,
			"componentType":5126,
			"count":7961,
			"max":[
				79.79733276367188,
				217.8540496826172,
				33.621612548828125
			],
			"min":[
				-199.1807861328125,
				-64.38650512695312,
				-118.6498031616211
			],
			"type":"VEC3"
		},
		{
			"bufferView":29,
			"componentType":5126,
			"count":7961,
			"type":"VEC3"
		},
		{
			"bufferView":30,
			"componentType":5126,
			"count":7961,
			"type":"VEC2"
		},
		{
			"bufferView":31,
			"componentType":5123,
			"count":29319,
			"type":"SCALAR"
		},
		{
			"bufferView":32,
			"componentType":5126,
			"count":90,
			"max":[
				0.3187752664089203,
				0.1842660903930664,
				1
			],
			"min":[
				-0.424659788608551,
				-7.450580596923828e-09,
				-1.0000803470611572
			],
			"type":"VEC3"
		},
		{
			"bufferView":33,
			"componentType":5126,
			"count":90,
			"type":"VEC3"
		},
		{
			"bufferView":34,
			"componentType":5126,
			"count":90,
			"type":"VEC2"
		},
		{
			"bufferView":35,
			"componentType":5123,
			"count":432,
			"type":"SCALAR"
		},
		{
			"bufferView":36,
			"componentType":5126,
			"count":607,
			"max":[
				1.0437102317810059,
				0.2965802550315857,
				1.0402175188064575
			],
			"min":[
				-1.0437103509902954,
				-0.18831241130828857,
				-1.0472030639648438
			],
			"type":"VEC3"
		},
		{
			"bufferView":37,
			"componentType":5126,
			"count":607,
			"type":"VEC3"
		},
		{
			"bufferView":38,
			"componentType":5126,
			"count":607,
			"type":"VEC2"
		},
		{
			"bufferView":39,
			"componentType":5123,
			"count":2040,
			"type":"SCALAR"
		},
		{
			"bufferView":40,
			"componentType":5126,
			"count":1024,
			"max":[
				79.66033935546875,
				80.51127624511719,
				22.761558532714844
			],
			"min":[
				-79.65848541259766,
				-80.50988006591797,
				-3.074000835418701
			],
			"type":"VEC3"
		},
		{
			"bufferView":41,
			"componentType":5126,
			"count":1024,
			"type":"VEC3"
		},
		{
			"bufferView":42,
			"componentType":5126,
			"count":1024,
			"type":"VEC2"
		},
		{
			"bufferView":43,
			"componentType":5123,
			"count":3162,
			"type":"SCALAR"
		},
		{
			"bufferView":44,
			"componentType":5126,
			"count":392,
			"max":[
				31.346237182617188,
				46.18544006347656,
				-0.1882483959197998
			],
			"min":[
				-242.51502990722656,
				-235.13833618164062,
				-1.0910615921020508
			],
			"type":"VEC3"
		},
		{
			"bufferView":45,
			"componentType":5126,
			"count":392,
			"type":"VEC3"
		},
		{
			"bufferView":46,
			"componentType":5126,
			"count":392,
			"type":"VEC2"
		},
		{
			"bufferView":47,
			"componentType":5123,
			"count":1164,
			"type":"SCALAR"
		},
		{
			"bufferView":48,
			"componentType":5126,
			"count":13001,
			"max":[
				8.328899383544922,
				7.579963207244873,
				1.195528268814087
			],
			"min":[
				-8.328899383544922,
				-7.579963207244873,
				-1.195528268814087
			],
			"type":"VEC3"
		},
		{
			"bufferView":49,
			"componentType":5126,
			"count":13001,
			"type":"VEC3"
		},
		{
			"bufferView":50,
			"componentType":5126,
			"count":13001,
			"type":"VEC2"
		},
		{
			"bufferView":51,
			"componentType":5123,
			"count":36240,
			"type":"SCALAR"
		},
		{
			"bufferView":52,
			"componentType":5126,
			"count":2112,
			"max":[
				11.668744087219238,
				10.162581443786621,
				3.2972211837768555
			],
			"min":[
				-8.823229789733887,
				-12.182061195373535,
				-3.3133490085601807
			],
			"type":"VEC3"
		},
		{
			"bufferView":53,
			"componentType":5126,
			"count":2112,
			"type":"VEC3"
		},
		{
			"bufferView":54,
			"componentType":5126,
			"count":2112,
			"type":"VEC2"
		},
		{
			"bufferView":55,
			"componentType":5123,
			"count":6084,
			"type":"SCALAR"
		},
		{
			"bufferView":56,
			"componentType":5126,
			"count":2264,
			"max":[
				0.290731281042099,
				9.737627983093262,
				2.7339539527893066
			],
			"min":[
				-7.195649147033691,
				-6.141260147094727,
				-2.995281934738159
			],
			"type":"VEC3"
		},
		{
			"bufferView":57,
			"componentType":5126,
			"count":2264,
			"type":"VEC3"
		},
		{
			"bufferView":58,
			"componentType":5126,
			"count":2264,
			"type":"VEC2"
		},
		{
			"bufferView":59,
			"componentType":5123,
			"count":6534,
			"type":"SCALAR"
		},
		{
			"bufferView":60,
			"componentType":5126,
			"count":1600,
			"max":[
				0.618036687374115,
				1.3062022924423218,
				0.6180367469787598
			],
			"min":[
				-0.6180365681648254,
				-0.02547222375869751,
				-0.6180363893508911
			],
			"type":"VEC3"
		},
		{
			"bufferView":61,
			"componentType":5126,
			"count":1600,
			"type":"VEC3"
		},
		{
			"bufferView":62,
			"componentType":5126,
			"count":1600,
			"type":"VEC2"
		},
		{
			"bufferView":63,
			"componentType":5123,
			"count":6042,
			"type":"SCALAR"
		},
		{
			"bufferView":64,
			"componentType":5126,
			"count":878,
			"max":[
				0.8306671977043152,
				0.22579380869865417,
				0.7869088649749756
			],
			"min":[
				-0.8306671977043152,
				-0.3869803845882416,
				-0.6399986743927002
			],
			"type":"VEC3"
		},
		{
			"bufferView":65,
			"componentType":5126,
			"count":878,
			"type":"VEC3"
		},
		{
			"bufferView":66,
			"componentType":5126,
			"count":878,
			"type":"VEC2"
		},
		{
			"bufferView":67,
			"componentType":5123,
			"count":4128,
			"type":"SCALAR"
		},
		{
			"bufferView":68,
			"componentType":5126,
			"count":716,
			"max":[
				5.918671131134033,
				3.246523141860962,
				4.962698936462402
			],
			"min":[
				-5.011301040649414,
				-3.854154348373413,
				-4.9855852127075195
			],
			"type":"VEC3"
		},
		{
			"bufferView":69,
			"componentType":5126,
			"count":716,
			"type":"VEC3"
		},
		{
			"bufferView":70,
			"componentType":5126,
			"count":716,
			"type":"VEC2"
		},
		{
			"bufferView":71,
			"componentType":5123,
			"count":1680,
			"type":"SCALAR"
		},
		{
			"bufferView":72,
			"componentType":5126,
			"count":988,
			"max":[
				2.5420079231262207,
				0.5276464223861694,
				1.7903382778167725
			],
			"min":[
				-4.048499584197998,
				-1.6394273042678833,
				-1.7903591394424438
			],
			"type":"VEC3"
		},
		{
			"bufferView":73,
			"componentType":5126,
			"count":988,
			"type":"VEC3"
		},
		{
			"bufferView":74,
			"componentType":5126,
			"count":988,
			"type":"VEC2"
		},
		{
			"bufferView":75,
			"componentType":5123,
			"count":2544,
			"type":"SCALAR"
		},
		{
			"bufferView":76,
			"componentType":5126,
			"count":175,
			"max":[
				5.841255187988281e-06,
				1.1071116924285889,
				0.8752095103263855
			],
			"min":[
				-4.025616645812988,
				6.556510925292969e-07,
				-0.8661224246025085
			],
			"type":"VEC3"
		},
		{
			"bufferView":77,
			"componentType":5126,
			"count":175,
			"type":"VEC3"
		},
		{
			"bufferView":78,
			"componentType":5126,
			"count":175,
			"type":"VEC2"
		},
		{
			"bufferView":79,
			"componentType":5123,
			"count":570,
			"type":"SCALAR"
		},
		{
			"bufferView":80,
			"componentType":5126,
			"count":1383,
			"max":[
				1.9409160614013672,
				2.3751988410949707,
				2.0191574096679688
			],
			"min":[
				-3.174994468688965,
				-0.6926000118255615,
				-2.019127368927002
			],
			"type":"VEC3"
		},
		{
			"bufferView":81,
			"componentType":5126,
			"count":1383,
			"type":"VEC3"
		},
		{
			"bufferView":82,
			"componentType":5126,
			"count":1383,
			"type":"VEC2"
		},
		{
			"bufferView":83,
			"componentType":5123,
			"count":3774,
			"type":"SCALAR"
		},
		{
			"bufferView":84,
			"componentType":5126,
			"count":48,
			"max":[
				0.42201676964759827,
				-0.004337890073657036,
				0.12455856055021286
			],
			"min":[
				-0.45563986897468567,
				-0.024343037977814674,
				-0.12455857545137405
			],
			"type":"VEC3"
		},
		{
			"bufferView":85,
			"componentType":5126,
			"count":48,
			"type":"VEC3"
		},
		{
			"bufferView":86,
			"componentType":5126,
			"count":48,
			"type":"VEC2"
		},
		{
			"bufferView":87,
			"componentType":5123,
			"count":96,
			"type":"SCALAR"
		},
		{
			"bufferView":88,
			"componentType":5126,
			"count":156,
			"max":[
				0.9407591819763184,
				0.034436360001564026,
				0.31987786293029785
			],
			"min":[
				-0.6729803681373596,
				-0.04197430983185768,
				-0.30354949831962585
			],
			"type":"VEC3"
		},
		{
			"bufferView":89,
			"componentType":5126,
			"count":156,
			"type":"VEC3"
		},
		{
			"bufferView":90,
			"componentType":5126,
			"count":156,
			"type":"VEC2"
		},
		{
			"bufferView":91,
			"componentType":5123,
			"count":264,
			"type":"SCALAR"
		},
		{
			"bufferView":92,
			"componentType":5126,
			"count":24,
			"max":[
				1,
				1,
				1
			],
			"min":[
				-1,
				-1,
				-1
			],
			"type":"VEC3"
		},
		{
			"bufferView":93,
			"componentType":5126,
			"count":24,
			"type":"VEC3"
		},
		{
			"bufferView":94,
			"componentType":5126,
			"count":24,
			"type":"VEC2"
		},
		{
			"bufferView":95,
			"componentType":5123,
			"count":36,
			"type":"SCALAR"
		}
	],
	"bufferViews":[
		{
			"buffer":0,
			"byteLength":71808,
			"byteOffset":0,
			"target":34962
		},
		{
			"buffer":0,
			"byteLength":71808,
			"byteOffset":71808,
			"target":34962
		},
		{
			"buffer":0,
			"byteLength":47872,
			"byteOffset":143616,
			"target":34962
		},
		{
			"buffer":0,
			"byteLength":64224,
			"byteOffset":191488,
			"target":34963
		},
		{
			"buffer":0,
			"byteLength":1181592,
			"byteOffset":255712,
			"target":34962
		},
		{
			"buffer":0,
			"byteLength":1181592,
			"byteOffset":1437304,
			"target":34962
		},
		{
			"buffer":0,
			"byteLength":787728,
			"byteOffset":2618896,
			"target":34962
		},
		{
			"buffer":0,
			"byteLength":1737912,
			"byteOffset":3406624,
			"target":34963
		},
		{
			"buffer":0,
			"byteLength":456348,
			"byteOffset":5144536,
			"target":34962
		},
		{
			"buffer":0,
			"byteLength":456348,
			"byteOffset":5600884,
			"target":34962
		},
		{
			"buffer":0,
			"byteLength":304232,
			"byteOffset":6057232,
			"target":34962
		},
		{
			"buffer":0,
			"byteLength":216948,
			"byteOffset":6361464,
			"target":34963
		},
		{
			"buffer":0,
			"byteLength":398496,
			"byteOffset":6578412,
			"target":34962
		},
		{
			"buffer":0,
			"byteLength":398496,
			"byteOffset":6976908,
			"target":34962
		},
		{
			"buffer":0,
			"byteLength":265664,
			"byteOffset":7375404,
			"target":34962
		},
		{
			"buffer":0,
			"byteLength":186672,
			"byteOffset":7641068,
			"target":34963
		},
		{
			"buffer":0,
			"byteLength":198288,
			"byteOffset":7827740,
			"target":34962
		},
		{
			"buffer":0,
			"byteLength":198288,
			"byteOffset":8026028,
			"target":34962
		},
		{
			"buffer":0,
			"byteLength":132192,
			"byteOffset":8224316,
			"target":34962
		},
		{
			"buffer":0,
			"byteLength":93096,
			"byteOffset":8356508,
			"target":34963
		},
		{
			"buffer":0,
			"byteLength":25872,
			"byteOffset":8449604,
			"target":34962
		},
		{
			"buffer":0,
			"byteLength":25872,
			"byteOffset":8475476,
			"target":34962
		},
		{
			"buffer":0,
			"byteLength":17248,
			"byteOffset":8501348,
			"target":34962
		},
		{
			"buffer":0,
			"byteLength":11040,
			"byteOffset":8518596,
			"target":34963
		},
		{
			"buffer":0,
			"byteLength":41268,
			"byteOffset":8529636,
			"target":34962
		},
		{
			"buffer":0,
			"byteLength":41268,
			"byteOffset":8570904,
			"target":34962
		},
		{
			"buffer":0,
			"byteLength":27512,
			"byteOffset":8612172,
			"target":34962
		},
		{
			"buffer":0,
			"byteLength":23592,
			"byteOffset":8639684,
			"target":34963
		},
		{
			"buffer":0,
			"byteLength":95532,
			"byteOffset":8663276,
			"target":34962
		},
		{
			"buffer":0,
			"byteLength":95532,
			"byteOffset":8758808,
			"target":34962
		},
		{
			"buffer":0,
			"byteLength":63688,
			"byteOffset":8854340,
			"target":34962
		},
		{
			"buffer":0,
			"byteLength":58638,
			"byteOffset":8918028,
			"target":34963
		},
		{
			"buffer":0,
			"byteLength":1080,
			"byteOffset":8976668,
			"target":34962
		},
		{
			"buffer":0,
			"byteLength":1080,
			"byteOffset":8977748,
			"target":34962
		},
		{
			"buffer":0,
			"byteLength":720,
			"byteOffset":8978828,
			"target":34962
		},
		{
			"buffer":0,
			"byteLength":864,
			"byteOffset":8979548,
			"target":34963
		},
		{
			"buffer":0,
			"byteLength":7284,
			"byteOffset":8980412,
			"target":34962
		},
		{
			"buffer":0,
			"byteLength":7284,
			"byteOffset":8987696,
			"target":34962
		},
		{
			"buffer":0,
			"byteLength":4856,
			"byteOffset":8994980,
			"target":34962
		},
		{
			"buffer":0,
			"byteLength":4080,
			"byteOffset":8999836,
			"target":34963
		},
		{
			"buffer":0,
			"byteLength":12288,
			"byteOffset":9003916,
			"target":34962
		},
		{
			"buffer":0,
			"byteLength":12288,
			"byteOffset":9016204,
			"target":34962
		},
		{
			"buffer":0,
			"byteLength":8192,
			"byteOffset":9028492,
			"target":34962
		},
		{
			"buffer":0,
			"byteLength":6324,
			"byteOffset":9036684,
			"target":34963
		},
		{
			"buffer":0,
			"byteLength":4704,
			"byteOffset":9043008,
			"target":34962
		},
		{
			"buffer":0,
			"byteLength":4704,
			"byteOffset":9047712,
			"target":34962
		},
		{
			"buffer":0,
			"byteLength":3136,
			"byteOffset":9052416,
			"target":34962
		},
		{
			"buffer":0,
			"byteLength":2328,
			"byteOffset":9055552,
			"target":34963
		},
		{
			"buffer":0,
			"byteLength":156012,
			"byteOffset":9057880,
			"target":34962
		},
		{
			"buffer":0,
			"byteLength":156012,
			"byteOffset":9213892,
			"target":34962
		},
		{
			"buffer":0,
			"byteLength":104008,
			"byteOffset":9369904,
			"target":34962
		},
		{
			"buffer":0,
			"byteLength":72480,
			"byteOffset":9473912,
			"target":34963
		},
		{
			"buffer":0,
			"byteLength":25344,
			"byteOffset":9546392,
			"target":34962
		},
		{
			"buffer":0,
			"byteLength":25344,
			"byteOffset":9571736,
			"target":34962
		},
		{
			"buffer":0,
			"byteLength":16896,
			"byteOffset":9597080,
			"target":34962
		},
		{
			"buffer":0,
			"byteLength":12168,
			"byteOffset":9613976,
			"target":34963
		},
		{
			"buffer":0,
			"byteLength":27168,
			"byteOffset":9626144,
			"target":34962
		},
		{
			"buffer":0,
			"byteLength":27168,
			"byteOffset":9653312,
			"target":34962
		},
		{
			"buffer":0,
			"byteLength":18112,
			"byteOffset":9680480,
			"target":34962
		},
		{
			"buffer":0,
			"byteLength":13068,
			"byteOffset":9698592,
			"target":34963
		},
		{
			"buffer":0,
			"byteLength":19200,
			"byteOffset":9711660,
			"target":34962
		},
		{
			"buffer":0,
			"byteLength":19200,
			"byteOffset":9730860,
			"target":34962
		},
		{
			"buffer":0,
			"byteLength":12800,
			"byteOffset":9750060,
			"target":34962
		},
		{
			"buffer":0,
			"byteLength":12084,
			"byteOffset":9762860,
			"target":34963
		},
		{
			"buffer":0,
			"byteLength":10536,
			"byteOffset":9774944,
			"target":34962
		},
		{
			"buffer":0,
			"byteLength":10536,
			"byteOffset":9785480,
			"target":34962
		},
		{
			"buffer":0,
			"byteLength":7024,
			"byteOffset":9796016,
			"target":34962
		},
		{
			"buffer":0,
			"byteLength":8256,
			"byteOffset":9803040,
			"target":34963
		},
		{
			"buffer":0,
			"byteLength":8592,
			"byteOffset":9811296,
			"target":34962
		},
		{
			"buffer":0,
			"byteLength":8592,
			"byteOffset":9819888,
			"target":34962
		},
		{
			"buffer":0,
			"byteLength":5728,
			"byteOffset":9828480,
			"target":34962
		},
		{
			"buffer":0,
			"byteLength":3360,
			"byteOffset":9834208,
			"target":34963
		},
		{
			"buffer":0,
			"byteLength":11856,
			"byteOffset":9837568,
			"target":34962
		},
		{
			"buffer":0,
			"byteLength":11856,
			"byteOffset":9849424,
			"target":34962
		},
		{
			"buffer":0,
			"byteLength":7904,
			"byteOffset":9861280,
			"target":34962
		},
		{
			"buffer":0,
			"byteLength":5088,
			"byteOffset":9869184,
			"target":34963
		},
		{
			"buffer":0,
			"byteLength":2100,
			"byteOffset":9874272,
			"target":34962
		},
		{
			"buffer":0,
			"byteLength":2100,
			"byteOffset":9876372,
			"target":34962
		},
		{
			"buffer":0,
			"byteLength":1400,
			"byteOffset":9878472,
			"target":34962
		},
		{
			"buffer":0,
			"byteLength":1140,
			"byteOffset":9879872,
			"target":34963
		},
		{
			"buffer":0,
			"byteLength":16596,
			"byteOffset":9881012,
			"target":34962
		},
		{
			"buffer":0,
			"byteLength":16596,
			"byteOffset":9897608,
			"target":34962
		},
		{
			"buffer":0,
			"byteLength":11064,
			"byteOffset":9914204,
			"target":34962
		},
		{
			"buffer":0,
			"byteLength":7548,
			"byteOffset":9925268,
			"target":34963
		},
		{
			"buffer":0,
			"byteLength":576,
			"byteOffset":9932816,
			"target":34962
		},
		{
			"buffer":0,
			"byteLength":576,
			"byteOffset":9933392,
			"target":34962
		},
		{
			"buffer":0,
			"byteLength":384,
			"byteOffset":9933968,
			"target":34962
		},
		{
			"buffer":0,
			"byteLength":192,
			"byteOffset":9934352,
			"target":34963
		},
		{
			"buffer":0,
			"byteLength":1872,
			"byteOffset":9934544,
			"target":34962
		},
		{
			"buffer":0,
			"byteLength":1872,
			"byteOffset":9936416,
			"target":34962
		},
		{
			"buffer":0,
			"byteLength":1248,
			"byteOffset":9938288,
			"target":34962
		},
		{
			"buffer":0,
			"byteLength":528,
			"byteOffset":9939536,
			"target":34963
		},
		{
			"buffer":0,
			"byteLength":288,
			"byteOffset":9940064,
			"target":34962
		},
		{
			"buffer":0,
			"byteLength":288,
			"byteOffset":9940352,
			"target":34962
		},
		{
			"buffer":0,
			"byteLength":192,
			"byteOffset":9940640,
			"target":34962
		},
		{
			"buffer":0,
			"byteLength":72,
			"byteOffset":9940832,
			"target":34963
		}
	],
	"buffers":[
		{
			"byteLength":9940904,
			"uri":"Full%20Engine.bin"
		}
	]
}
